<?xml version="1.0" standalone="no"?><!DOCTYPE svg PUBLIC "-//W3C//DTD SVG 1.1//EN" "http://www.w3.org/Graphics/SVG/1.1/DTD/svg11.dtd"><svg t="1496824420860" class="icon" style="" viewBox="0 0 1024 1024" version="1.1" xmlns="http://www.w3.org/2000/svg" p-id="13537" xmlns:xlink="http://www.w3.org/1999/xlink" width="200" height="200"><defs><style type="text/css"></style></defs><path d="M703.486684 290.309922c-14.100136 164.860768-21.171182 250.39177-21.171182 256.600169 0 60.706617 17.373693 91.040483 52.096519 91.040483 32.1707 0 58.788941-17.561981 79.812767-52.707432 21.022803-35.147498 31.55774-80.953753 31.55774-137.418766 0-82.430384-26.112728-149.745513-78.336136-201.991434-52.243875-52.223409-124.499525-78.335113-216.807884-78.335113-90.072435 0-164.585499 31.473829-223.585241 94.440929-59.020208 62.946634-88.508823 141.704372-88.508823 236.271168 0 92.605118 27.65178 167.139671 83.000366 223.584218 55.32505 56.469106 130.705877 84.689844 226.117924 84.689844 73.964572 0 138.051169-12.558014 192.258769-37.679158l0 60.139705c-52.79339 22.566972-118.863155 33.879622-198.190875 33.879622-110.947881 0-200.491267-33.393551-268.674159-100.161211-68.180845-66.74617-102.272291-154.052608-102.272291-261.897825 0-111.51684 35.779901-204.184379 107.36017-278.003642 71.558779-73.817216 163.234735-110.73708 275.026844-110.73708 104.446817 0 190.613292 30.692023 258.520915 92.097558 67.887157 61.405535 101.851713 141.366681 101.851713 239.902882 0 73.396637-18.218944 133.322471-54.631248 179.740664C822.477752 670.204162 778.023284 693.426049 725.52563 693.426049c-66.917062 0-100.647281-35.420721-101.217263-106.284675l-2.111081 0C599.609849 658.005328 556.422234 693.426049 492.609882 693.426049c-41.500183 0-75.147514-15.243169-100.984972-45.724391-25.837458-30.502711-38.756699-72.001871-38.756699-124.500549 0-68.876694 17.795295-126.038578 53.363372-171.510212 35.568077-45.445028 81.437777-68.159356 137.629567-68.159356 22.016433 0 41.563628 5.572926 58.640562 16.717753 17.076934 11.167341 27.885094 25.056676 32.401967 41.710984l1.688455 0c0.275269-1.118474 1.836835-18.343787 4.665253-51.652404L703.486684 290.307875zM421.895331 523.623735c0 34.155914 7.262404 61.618383 21.806655 82.367963 14.543228 20.74958 35.208896 31.113625 62.037938 31.113625 36.983309 0 66.13321-18.49012 87.453794-55.474452 21.298072-36.982286 31.957853-85.806271 31.957853-146.516981 0-63.788815-26.807552-95.685269-80.44517-95.685269-36.413328 0-66.00632 17.772782-88.720647 53.341882C433.251983 428.339602 421.895331 471.971331 421.895331 523.623735z" p-id="13538"></path></svg>