<?xml version="1.0" standalone="no"?><!DOCTYPE svg PUBLIC "-//W3C//DTD SVG 1.1//EN" "http://www.w3.org/Graphics/SVG/1.1/DTD/svg11.dtd"><svg t="1498543145353" class="icon" style="" viewBox="0 0 1024 1024" version="1.1" xmlns="http://www.w3.org/2000/svg" p-id="1521" xmlns:xlink="http://www.w3.org/1999/xlink" width="200" height="200"><defs><style type="text/css"></style></defs><path d="M511.985674 941.736415c-239.906975 0-435.092399-195.185424-435.0924-435.0924 0-239.905952 195.185424-435.120029 435.0924-435.120028 239.905952 0 435.120029 195.214077 435.120028 435.120028 0.001023 239.906975-195.214077 435.092399-435.120028 435.0924z m0-829.993425c-217.743186 0-394.871349 177.159886-394.87135 394.901025 0 217.743186 177.129186 394.871349 394.87135 394.87135 217.74114 0 394.901025-177.129186 394.901025-394.87135 0.001023-217.742163-177.158862-394.901025-394.901025-394.901025z" p-id="1522"></path><path d="M610.255815 404.447449c0 26.813692-12.68081 51.694359-38.046525 74.704422a2260.305337 2260.305337 0 0 0-23.37129 19.869536c-10.688433 9.782807-19.385513 20.533662-26.089192 32.308847-3.079128 5.616928-6.824429 20.111037-11.172457 43.482327-3.623527 19.928888-12.863982 29.892821-27.719318 29.892821-16.668635 0-25.00244-10.870582-25.00244-32.610722 0-17.936511 4.770653-36.416398 14.314007-55.438637 9.54233-19.023262 21.679765-34.302247 36.385698-45.897329 18.147312-14.312984 29.864168-24.578792 35.147498-30.739095 8.908904-10.507308 13.377682-22.162766 13.377682-35.026748 0-13.588483-5.434779-24.882714-16.214287-33.879622-10.780531-8.93858-24.911366-13.406335-42.334177-13.406334-11.625782 0-24.066115 4.649903-37.292348 13.94971-13.286608 9.360182-22.344914 14.011108-27.237341 14.011108-5.79703 0-10.809183-2.356674-14.976086-7.186679-4.166903-4.770653-6.282077-10.628058-6.282077-17.513886 0-11.776208 8.274454-22.405289 24.761964-31.826869 17.755386-10.327206 39.314401-15.46011 64.679091-15.46011 32.79287 0 58.821687 8.213056 78.116125 24.699542 19.293415 16.486486 28.955472 38.528502 28.955473 66.067718z m-82.917478 259.502265c0 10.327206-3.472078 18.842137-10.447957 25.545816-6.975878 6.702656-16.184611 10.084683-27.598568 10.084683-11.051707 0-19.989263-3.261277-26.874067-9.782808-6.883781-6.52153-10.327206-14.976086-10.327206-25.305339 0-10.688433 3.623527-19.506263 10.870581-26.511817 7.248078-6.946202 16.366759-10.447956 27.417443-10.447956 10.871605 0 19.748786 3.382027 26.633591 10.205433 6.883781 6.767124 10.326183 15.523555 10.326183 26.211988z" p-id="1523"></path></svg>