<?xml version="1.0" standalone="no"?><!DOCTYPE svg PUBLIC "-//W3C//DTD SVG 1.1//EN" "http://www.w3.org/Graphics/SVG/1.1/DTD/svg11.dtd"><svg t="1496282295864" class="icon" style="" viewBox="0 0 1024 1024" version="1.1" xmlns="http://www.w3.org/2000/svg" p-id="1906" xmlns:xlink="http://www.w3.org/1999/xlink" width="200" height="200"><defs><style type="text/css"></style></defs><path d="M825.087695 415.217746H356.87599c-11.492752 0-20.810978 9.142218-20.810978 20.417006v51.045583h-17.873066c-79.229482 0-143.685493 64.114227-143.685493 142.925176s64.454988 142.925177 143.685493 142.925177h23.208584c22.682605 99.096972 115.631554 173.552731 226.567156 173.552731h60.255339c124.094296 0 217.674625-94.78169 217.674624-220.460064V435.636798c0.001023-11.275811-9.317203-20.418029-20.808931-20.418028l-0.001023-0.001024z m-506.894726 316.476885c-56.282864 0-102.065584-45.800116-102.065583-102.08912 0-56.290027 45.782719-102.08912 102.065583-102.089119h17.873066v198.10594c0 2.035356 0.103354 4.049223 0.163729 6.071276h-18.035772v0.001023h-0.001023z m486.085794-6.072299c0 102.398158-75.68782 179.622984-176.056762 179.622984h-60.255338c-104.920608 0-190.281741-80.576153-190.281741-179.622984V456.054827h426.594864v269.567505h-0.001023zM523.570523 316.720432c-1.190105 16.477276-16.526395 28.154223-17.060561 28.550242-9.201569 6.641257-11.232832 19.321044-4.526083 28.424377 4.068665 5.51255 10.42442 8.443299 16.872273 8.443299 4.225231 0 8.494465-1.255597 12.181437-3.879354 3.179412-2.252297 31.157627-23.070438 33.998325-58.033741 1.978051-24.287149-8.616238-47.973618-31.482016-70.404489-40.202631-39.448454-7.119141-75.947739-0.168845-82.777285a20.157085 20.157085 0 0 0 0.334621-28.882818c-8.027837-8.054443-21.203928-8.204869-29.423123-0.330528-1.293459 1.245364-31.642674 30.815843-31.881105 71.810513-0.141216 25.034163 10.526751 48.26219 31.712259 69.049632 13.748119 13.491269 20.289092 26.292829 19.442818 38.030152z m126.985136-64.176649c18.663058 18.313088 27.504424 36.011168 26.275434 52.579519-1.747807 23.537066-23.304775 39.71963-23.864524 40.126906-9.226129 6.631024-11.274788 19.330254-4.556783 28.43461 4.068665 5.523807 10.425444 8.453533 16.872273 8.453532 4.227278 0 8.492418-1.255597 12.181437-3.879354 1.524726-1.076518 37.366026-26.988678 40.83094-69.608357 2.363837-29.121248-10.525728-57.713446-38.316677-84.981487-17.533328-17.197684-26.41051-35.46063-26.393113-54.264904 0.036839-32.550347 26.030863-58.322313 26.224268-58.510602a20.158109 20.158109 0 0 0 0.334621-28.882817c-8.027837-8.054443-21.204951-8.204869-29.424147-0.330528-1.570775 1.51654-38.465057 37.46631-38.748512 87.194898-0.177032 30.229488 12.802584 58.382689 38.581713 83.666538l0.00307 0.002046z" p-id="1907"></path></svg>