<?xml version="1.0" standalone="no"?><!DOCTYPE svg PUBLIC "-//W3C//DTD SVG 1.1//EN" "http://www.w3.org/Graphics/SVG/1.1/DTD/svg11.dtd"><svg t="1496282221556" class="icon" style="" viewBox="0 0 1024 1024" version="1.1" xmlns="http://www.w3.org/2000/svg" p-id="1364" xmlns:xlink="http://www.w3.org/1999/xlink" width="200" height="200"><defs><style type="text/css"></style></defs><path d="M752.495376 945.725262l-99.659791-0.060375c-15.210423-0.603751-30.020734-0.744967-45.37135-0.744967l-41.73145 0.100284c-29.838585 0-61.992913-0.422625-94.969978-3.440355C274.340205 923.472446 107.919918 760.672616 83.654258 562.903344 57.678654 351.291808 188.001815 153.562445 393.537981 92.716658A417.657308 417.657308 0 0 1 512.191358 75.512834c205.213825 0 383.506511 145.756665 423.908686 346.5846 25.172309 125.093043 0 241.029542-74.830289 344.592222-22.415522 31.025621-25.352411 53.239552-10.462282 79.196737 3.319605 5.815449 6.155187 11.95017 8.952905 18.086937l2.273787 4.930289c5.916756 12.695137 16.84055 36.277228 4.105504 56.298214-12.857842 20.221554-39.780005 20.322861-54.226018 20.382213-19.59836 0.101307-39.216163 0.141216-59.418275 0.141216z m-140.473335-35.968189c16.893762 0 33.199123 0.169869 48.722678 0.802272l103.307877 0.062421c21.1149 0 41.573861-0.042979 62.033845-0.12689 0.759293 0 1.497097-0.022513 2.193969-0.022512-0.085958-0.210801-0.191358-0.378623-0.275269-0.590448l-2.572592-5.632277c-2.213411-4.828982-4.365424-9.702989-7.003508-14.278192-26.703175-46.593178-22.060435-93.610004 14.173814-143.7868 69.87851-96.729042 92.40455-200.522989 68.908416-317.310879-37.102013-184.426383-200.859657-318.278927-389.360845-318.278927-36.680411 0-73.169463 5.294586-108.456131 15.734356-189.07117 55.979966-308.938188 237.750869-285.061384 432.242491C140.948149 740.303706 293.677623 889.88856 473.910497 906.488633c32.311917 2.996241 64.458057 3.396353 94.38567 3.396353l43.725874-0.127913z" p-id="1365"></path><path d="M613.70231 705.523575h-1.517563l-0.989537-0.086981c-7.028067-0.615007-12.926404-2.242064-18.031679-4.975315a328.34826 328.34826 0 0 1-7.685029-4.25286l-1.302669-0.740874-70.307276-53.363372-66.47704 51.591006c-3.121084 2.541893-6.130627 4.6366-9.19543 6.401803-5.205559 2.992147-11.656481 4.739954-19.727297 5.342682l-0.845251 0.063445h-0.847297c-5.40715 0-11.023054-1.327228-16.691148-3.945869-6.344498-2.932796-11.461029-7.181563-15.220656-12.631692-3.691065-5.212722-5.948479-10.290367-6.896061-15.510252-0.592494-3.193739-0.89437-6.256494-0.894369-9.102308 0-3.521197 0.391926-6.91755 1.162476-10.100032l0.076748-0.306992c0.265036-1.027399 0.563842-2.445702 0.822738-3.693112l0.187265-0.90358 25.542746-87.146802-64.666812-47.580668c-5.514597-2.992147-9.881045-6.456039-13.311167-10.547217l-0.701988-0.884137c-2.097778-2.77009-3.894703-5.829775-5.494131-9.356089-1.989307-4.345981-3.111874-9.290597-3.320629-14.671141-1.181919-9.997702 2.023076-19.550265 9.156544-27.259853 4.113691-5.114484 9.572006-9.033747 15.948227-11.450797 4.180206-1.910513 8.469905-3.077082 12.767792-3.476171a83.374896 83.374896 0 0 1 7.66661-0.358157h82.680071l27.0204-87.829348 0.336668-0.847297a66.061578 66.061578 0 0 0 1.381463-3.734045c1.059122-3.215228 2.596128-6.484691 4.572132-9.727548l0.598634-0.984421 0.695848-0.917906c2.520403-3.325745 5.892197-6.459109 10.308787-9.580192 5.748934-4.069689 12.671601-6.511297 20.559245-7.248078l2.110057-0.196475 2.109034 0.196475c8.262174 0.77055 15.350616 3.40147 21.070898 7.818059 3.246951 2.506077 5.713119 4.624321 7.752568 6.662747l1.969864 1.969864 1.435699 2.386351c1.843998 3.064802 3.321652 6.189979 4.396123 9.289573l0.106424 0.317225a68.403926 68.403926 0 0 0 1.382487 3.742231l0.337691 0.848321 27.022447 87.834464h86.422301c3.726881 0 7.517207 0.662079 11.300371 1.969864a44.305065 44.305065 0 0 1 8.948813 3.340072c4.583388 2.292206 8.812713 5.729491 12.576433 10.222829l0.513699 0.635473c5.570879 7.154957 8.515954 15.634072 8.515955 24.521486l-0.005117 0.475838c-0.13917 6.596232-1.644453 12.540617-4.474918 17.668405-1.616824 2.931772-3.193739 5.414313-4.811586 7.571442-3.601015 4.920056-8.257058 8.879228-13.867845 11.802814l-63.029522 46.709835 27.183106 85.761245c1.044796 2.736321 1.819438 5.294586 2.359744 7.794524a46.700625 46.700625 0 0 1 1.033539 9.804296c0 3.716648-0.615007 7.580652-1.826602 11.485589-1.24741 4.056386-3.385097 8.197706-6.517437 12.589736-3.609201 5.27105-8.447393 9.432837-14.388708 12.377912-5.635347 2.795673-11.351536 4.213975-16.986883 4.213975z m-78.735226-91.90313l85.388763 64.810075-32.047904-101.112885c-1.757017-3.823072-2.681062-8.049327-2.681062-12.447497 0-5.819542 1.474584-11.712763 4.381797-17.522072 1.199315-2.400676 4.552689-9.107425 11.590989-13.823843l76.700893-56.84159h-98.390891c-8.209986 0-16.053628-2.944052-22.373566-8.339945-8.559956-6.399757-11.888771-13.923104-13.07376-19.846001l-31.286564-101.695146-31.279401 101.670587c-1.184989 5.966898-4.532223 13.550621-13.193487 19.959587-6.320962 5.339612-14.125719 8.250918-22.263049 8.250918h-98.350982l79.428004 58.44204 1.307785 1.267877c3.061732 2.972705 5.632277 6.644327 8.087189 11.55108 2.90619 5.806239 4.378727 11.916401 4.378727 18.154475v5.697769L410.268014 677.636434l79.818907-61.94584c5.155417-5.314029 12.950963-9.280364 23.679305-9.280364 9.993608 0.001023 16.839527 3.591805 21.200858 7.210215z" p-id="1366"></path></svg>