<?xml version="1.0" standalone="no"?><!DOCTYPE svg PUBLIC "-//W3C//DTD SVG 1.1//EN" "http://www.w3.org/Graphics/SVG/1.1/DTD/svg11.dtd"><svg t="1502868402712" class="icon" style="" viewBox="0 0 1024 1024" version="1.1" xmlns="http://www.w3.org/2000/svg" p-id="2418" xmlns:xlink="http://www.w3.org/1999/xlink" width="200" height="200"><defs><style type="text/css"></style></defs><path d="M903 210.852C903 151.839 855.161 104 796.148 104H225.852C166.839 104 119 151.839 119 210.852v605.296C119 875.161 166.839 923 225.852 923h570.296C855.161 923 903 875.161 903 816.148V210.852zM742.308 451h0.002c-21.526 112-119.898 196.625-238.15 196.625-117.336 0-215.206-83.278-237.747-193.959-18.602-8.357-31.609-26.953-31.609-48.669 0-29.507 23.92-53.423 53.426-53.423s53.426 23.921 53.426 53.427c0 24.085-16.041 44.209-37.943 50.879l0.009-0.002c22.765 89.589 103.867 156.15 200.438 156.15 96.111 0 176.898-65.93 200.111-154.871-24.037-5.22-42.059-26.556-42.059-52.154 0-29.507 23.92-53.426 53.426-53.426 29.507 0 53.426 23.898 53.426 53.405 0.001 19.744-10.83 37.018-26.756 46.018z" p-id="2419"></path></svg>