<?xml version="1.0" standalone="no"?><!DOCTYPE svg PUBLIC "-//W3C//DTD SVG 1.1//EN" "http://www.w3.org/Graphics/SVG/1.1/DTD/svg11.dtd"><svg t="1503036795729" class="icon" style="" viewBox="0 0 1024 1024" version="1.1" xmlns="http://www.w3.org/2000/svg" p-id="2294" xmlns:xlink="http://www.w3.org/1999/xlink" width="200" height="200"><defs><style type="text/css"></style></defs><path d="M466.481 103.243h97.5c184.238 24.254 336.996 178.617 359.804 363.02v96.054c-17.828 96.856-61.519 191.145-137.015 256.36-60.395 55.418-138.782 85.617-217.649 103.765H463.59c-63.609-11.402-138.301-28.59-172.035-89.949-20.399-36.785 0.965-77.422 6.91-115.012-3.215-41.121-8.195-83.363 4.816-123.359 38.231-130.27 102.321-254.758 193.075-356.113 31.644-37.746 85.617-26.504 128.824-31.645-8.512 46.422-5.461 99.43-35.5 138.625-27.625 21.684-61.52 35.496-85.934 61.035-38.23 52.207-58.953 114.852-76.461 176.531 51.242 77.262-26.34 181.993-113.562 174.762 5.781 36.946 12.207 80.153 51.883 96.215 106.175 52.207 238.851 37.91 338.925-22.164 112.758-66.5 185.684-195.645 181.508-326.879-1.125-137.976-88.023-269.691-212.351-328.32-120.469-59.274-272.422-44.336-379.723 35.98-116.133 83.364-176.047 237.086-144.723 376.832 14.778 70.836 60.074 128.985 92.68 192.11-88.184-31.805-117.098-129.786-137.336-211.707V463.208c24.898-183.758 177.332-337.317 361.895-359.965z m0 0" p-id="2295"></path><path d="M644.453 225.641c17.512 11.403 41.766 16.063 52.207 36.141 7.707 43.691-6.426 91.559-37.75 123.039-20.879 4.66-42.082-1.926-62.965-3.371 26.504-48.348 41.762-101.355 48.508-155.809zM375.887 769.204c44.492-34.375 77.261-80.313 99.105-132.035 12.047 14.937 23.774 30.199 35.34 45.457-1.769 41.121-27.789 78.707-60.719 101.84-24.414 19.433-50.437-8.032-73.726-15.262z m0 0" p-id="2296"></path></svg>