<?xml version="1.0" standalone="no"?><!DOCTYPE svg PUBLIC "-//W3C//DTD SVG 1.1//EN" "http://www.w3.org/Graphics/SVG/1.1/DTD/svg11.dtd"><svg t="1496821517004" class="icon" style="" viewBox="0 0 1024 1024" version="1.1" xmlns="http://www.w3.org/2000/svg" p-id="8023" xmlns:xlink="http://www.w3.org/1999/xlink" width="200" height="200"><defs><style type="text/css"></style></defs><path d="M767.308 800.59a24.241 24.241 0 0 1-17.197-7.124L249.736 293.092c-9.498-9.498-9.498-24.896 0-34.394 9.498-9.498 24.897-9.498 34.394 0l500.375 500.374c9.498 9.498 9.498 24.896 0 34.395a24.244 24.244 0 0 1-17.197 7.123z" p-id="8024"></path><path d="M266.933 800.59a24.243 24.243 0 0 1-17.197-7.124c-9.498-9.498-9.498-24.896 0-34.394l500.375-500.375c9.498-9.498 24.896-9.498 34.395 0 9.498 9.498 9.498 24.896 0 34.394L284.131 793.467a24.25 24.25 0 0 1-17.198 7.123z" p-id="8025"></path></svg>