<?xml version="1.0" standalone="no"?><!DOCTYPE svg PUBLIC "-//W3C//DTD SVG 1.1//EN" "http://www.w3.org/Graphics/SVG/1.1/DTD/svg11.dtd"><svg t="1496282340001" class="icon" style="" viewBox="0 0 1024 1024" version="1.1" xmlns="http://www.w3.org/2000/svg" p-id="3163" xmlns:xlink="http://www.w3.org/1999/xlink" width="200" height="200"><defs><style type="text/css"></style></defs><path d="M794.764574 36.375465c-88.683808 0-160.575162 71.891354-160.575162 160.575162S706.080765 357.52579 794.764574 357.52579c88.684832 0 160.575162-71.891354 160.575162-160.575162S883.449405 36.375465 794.764574 36.375465zM794.764574 282.353716c-48.088228 0-87.066985-38.981826-87.066985-87.068008 0-48.085158 38.978756-87.066985 87.066985-87.066985 48.083112 0 87.068008 38.981826 87.068008 87.066985C881.832582 243.37189 842.847685 282.353716 794.764574 282.353716z" p-id="3164"></path><path d="M791.910573 681.530115c-88.684832 0-160.575162 71.891354-160.575162 160.575162s71.89033 160.575162 160.575162 160.575162c88.683808 0 160.575162-71.891354 160.575162-160.575162S880.594381 681.530115 791.910573 681.530115zM791.910573 927.511435c-48.089251 0-87.068008-38.983873-87.068008-87.066985 0-48.089251 38.978756-87.068008 87.068008-87.068008 48.083112 0 87.066985 38.978756 87.066985 87.068008C878.977557 888.527562 839.993684 927.511435 791.910573 927.511435z" p-id="3165"></path><path d="M216.692762 356.099301c-88.681762 0-160.575162 71.89033-160.575162 160.575162 0 88.683808 71.8934 160.575162 160.575162 160.575162 88.683808 0 160.574139-71.891354 160.574139-160.575162C377.266901 427.988608 305.376571 356.099301 216.692762 356.099301zM216.692762 602.078575c-48.086182 0-87.068008-38.983873-87.068008-87.066985 0-48.089251 38.981826-87.068008 87.068008-87.068008 48.085158 0 87.066985 38.978756 87.066985 87.068008C303.759747 563.095725 264.777921 602.078575 216.692762 602.078575z" p-id="3166"></path><path d="M646.750495 235.053434 327.13513 409.79013 363.334587 476.011344 682.947905 301.276694Z" p-id="3167"></path><path d="M675.320181 784.900414 343.320765 575.98529 304.25298 638.063137 636.24728 846.978261Z" p-id="3168"></path></svg>