<?xml version="1.0" standalone="no"?><!DOCTYPE svg PUBLIC "-//W3C//DTD SVG 1.1//EN" "http://www.w3.org/Graphics/SVG/1.1/DTD/svg11.dtd"><svg t="1496282342962" class="icon" style="" viewBox="0 0 1024 1024" version="1.1" xmlns="http://www.w3.org/2000/svg" p-id="3280" xmlns:xlink="http://www.w3.org/1999/xlink" width="200" height="200"><defs><style type="text/css"></style></defs><path d="M314.511625 706.993043c5.584182 5.586229 12.659321 8.416693 19.660782 8.416693 6.999414 0 14.074553-2.830465 19.635199-8.416693l163.043377-163.017794 162.943093 163.017794c5.659907 5.586229 12.635785 8.416693 19.710924 8.416693 7.073092 0 14.074553-2.830465 19.708877-8.416693 11.270694-11.294231 11.270694-28.124548 0-39.371706L556.146964 504.677221l163.017794-162.957419c11.220552-11.232832 11.220552-28.136827 0-39.369659-11.31879-11.232832-28.149107-11.232832-39.371706 0L516.84996 465.367937l-163.043377-163.017794c-11.220552-11.232832-28.124548-11.232832-39.294958 0-11.246135 11.232832-11.246135 28.136827 0 39.369659L477.528396 504.677221 314.511625 667.621337C303.264467 678.915567 303.264467 695.748954 314.511625 706.993043L314.511625 706.993043 314.511625 706.993043zM516.84996 954.287265c119.378901 0 233.196133-46.370097 317.472562-132.110877 84.326571-84.278475 132.136459-198.095707 132.136459-317.499168 0-119.40346-46.394656-233.219669-132.136459-317.558519C750.046093 101.438297 636.228861 55.067176 516.84996 55.067176c-119.429043 0-233.246275 46.37112-317.572846 132.051525C113.585453 271.457552 67.238892 385.274784 67.238892 504.677221c0 119.40346 46.346561 233.220692 132.038222 317.499168C283.604708 907.917168 397.420917 954.287265 516.84996 954.287265L516.84996 954.287265 516.84996 954.287265zM238.672356 226.500641C313.096393 151.980413 411.423839 111.268176 516.84996 111.268176c105.377002 0 203.730031 40.712237 278.175557 115.231441 74.447573 74.447573 115.233488 172.775019 115.233488 278.177604 0 105.402585-40.785915 203.730031-115.233488 278.177604-74.445526 74.445526-172.798555 115.231441-278.175557 115.231441-105.426121 0-203.753567-40.785915-278.177604-115.231441-74.519204-74.447573-115.231441-172.775019-115.231441-278.177604C123.440915 399.274636 164.153152 300.94719 238.672356 226.500641L238.672356 226.500641 238.672356 226.500641zM238.672356 226.500641" p-id="3281"></path></svg>