<?xml version="1.0" standalone="no"?><!DOCTYPE svg PUBLIC "-//W3C//DTD SVG 1.1//EN" "http://www.w3.org/Graphics/SVG/1.1/DTD/svg11.dtd"><svg t="1498443002036" class="icon" style="" viewBox="0 0 1024 1024" version="1.1" xmlns="http://www.w3.org/2000/svg" p-id="3997" xmlns:xlink="http://www.w3.org/1999/xlink" width="200" height="200"><defs><style type="text/css"></style></defs><path d="M512 941.736415c-240.309134 0-435.106726-194.797591-435.106726-435.106726S271.690866 71.523987 512 71.523987s435.106726 194.797591 435.106726 435.106725-194.797591 435.105702-435.106726 435.105703z m0-826.702472c-216.269625 0-391.595746 175.326121-391.595746 391.595746S295.729351 898.226458 512 898.226458s391.595746-175.326121 391.595746-391.595746S728.269625 115.033943 512 115.033943zM250.740718 746.090503l166.906357-333.813739 333.857741-166.906357L584.597435 579.184145 250.740718 746.090503z m194.731076-305.987996L334.193385 662.637836l222.579331-111.300922 111.234407-222.512817-222.535329 111.27841z m55.650461 88.08722c-18.143219 0-32.828686-14.576997-32.828686-32.546253 0-17.99177 14.684444-32.546254 32.828686-32.546254 18.143219 0 32.828686 14.554484 32.828686 32.546254 0 17.97028-14.685467 32.546254-32.828686 32.546253z" p-id="3998"></path></svg>