<?xml version="1.0" standalone="no"?><!DOCTYPE svg PUBLIC "-//W3C//DTD SVG 1.1//EN" "http://www.w3.org/Graphics/SVG/1.1/DTD/svg11.dtd"><svg t="1502783199226" class="icon" style="" viewBox="0 0 1024 1024" version="1.1" xmlns="http://www.w3.org/2000/svg" p-id="2992" xmlns:xlink="http://www.w3.org/1999/xlink" width="200" height="200"><defs><style type="text/css"></style></defs><path d="M820.904 113.115C719.126 202.119 628.181 303.06 529.74 395.81c-50.957 42.903-45.957 117.047-68.313 174.949 50.403-17.773 107.328-20.41 153.844-47.07 101.496-99.277 202.16-199.664 302.824-299.91v-15.828c-29.992-33.879-63.867-64.149-97.191-94.836zM598.607 478.701c-18.883 21.383-49.43 21.66-74.699 29.851 8.191-25.269 8.609-55.675 30.269-74.144 88.723-87.61 176.754-175.778 265.891-262.977a6570.562 6570.562 0 0 0 44.016 44.016c-88.305 87.891-176.891 175.641-265.477 263.254z" p-id="2993"></path><path d="M850.06 362.072c-64.84 62.617-129.266 125.656-193.137 189.387-17.355 16.523-33.601 37.906-59.289 40.82-65.117 14.441-130.515 27.91-195.91 41.238 15.828-73.035 26.242-147.457 46.375-219.379 79.004-85.945 165.227-165.367 246.453-249.371-157.316 0-314.488-0.695-471.804 0.141-61.786-2.082-113.856 49.012-123.852 108.16v532.344c10.137 51.511 50.68 92.054 101.637 103.855h541.922c58.039-12.773 109.828-62.898 107.605-125.101 0.973-140.653 0.418-281.442 0-422.094z" p-id="2994"></path></svg>