<?xml version="1.0" encoding="UTF-8"?>
<svg width="38px" height="37px" viewBox="0 0 38 37" version="1.1" xmlns="http://www.w3.org/2000/svg" xmlns:xlink="http://www.w3.org/1999/xlink">
    <!-- Generator: Sketch 41.2 (35397) - http://www.bohemiancoding.com/sketch -->
    <title>名额</title>
    <desc>Created with Sketch.</desc>
    <defs></defs>
    <g id="Page-1" stroke="none" stroke-width="1" fill="none" fill-rule="evenodd">
        <g id="招商会详情微信分享页面" transform="translate(-23.000000, -2009.000000)" fill="#50ABF1">
            <g id="消息一" transform="translate(0.000000, 148.000000)">
                <g id="招商会信息" transform="translate(0.000000, 1457.000000)">
                    <g id="招商会名额" transform="translate(0.000000, 376.000000)">
                        <g id="名额" transform="translate(23.000000, 28.000000)">
                            <path d="M25.9249105,36.362069 C19.2652668,36.362069 13.8667185,31.0248762 13.8667185,24.4405143 C13.8667185,17.8563342 19.2652668,12.5191414 25.9249105,12.5191414 C32.5847382,12.5191414 37.9829186,17.8563342 37.9829186,24.4405143 C37.9831025,31.0248762 32.5847382,36.362069 25.9249105,36.362069 Z M25.9249105,14.9033069 C20.5977104,14.9033069 16.2783937,19.1731338 16.2783937,24.4403325 C16.2783937,29.7073493 20.5977104,33.9775399 25.9249105,33.9775399 C31.2522946,33.9775399 35.5714274,29.7073493 35.5714274,24.4403325 C35.5714274,19.1731338 31.2522946,14.9033069 25.9249105,14.9033069 Z M29.2411248,5.14266352 C29.2411736,4.70787449 29.0664963,4.29087944 28.7555303,3.98343717 C28.4445643,3.6759949 28.02279,3.50329699 27.5830177,3.50334522 L26.9350006,3.50334522 C26.8046764,3.55129294 26.6669237,3.57651364 26.5278753,3.57788448 C25.862389,3.57788448 25.3221296,3.04374707 25.3221296,2.38561993 C25.3221296,1.72749279 25.862389,1.19335538 26.5278753,1.19335538 C26.6714909,1.19335538 26.8071993,1.22262567 26.9350006,1.26789464 L28.1861663,1.26789464 C30.017127,1.26789464 31.5020128,2.73540904 31.5020128,4.54634945 L31.5020128,11.2385205 C30.7778666,10.9392727 30.0195176,10.7074737 29.2411248,10.5267615 L29.2411248,5.14266352 L29.2411248,5.14266352 Z M22.3076736,4.76996722 C21.641813,4.76976658 21.1020485,4.23619986 21.101744,3.57788448 L21.101744,1.19353719 C21.101744,0.535067659 21.6416571,0.0012726369 22.3076736,0.0012726369 C22.9736901,0.0012726369 23.5136031,0.535067659 23.5136031,1.19353719 L23.5136031,3.57788448 C23.5132986,4.23619986 22.9735342,4.76976658 22.3076736,4.76996722 L22.3076736,4.76996722 Z M15.6756128,4.76996722 C15.0097522,4.76976658 14.4699878,4.23619986 14.4696833,3.57788448 L14.4696833,1.19353719 C14.4696833,0.535410053 15.0099426,0.00145444725 15.6756128,0.00145441174 C16.341283,0.00145437623 16.8813585,0.535591828 16.8813585,1.19353719 L16.8813585,3.57788448 C16.8811554,4.23617045 16.3414436,4.76976652 15.6756128,4.76996722 L15.6756128,4.76996722 Z M3.31603038,32.4131244 C1.48433413,32.4131244 0,30.94561 0,29.1346696 L0,4.54653126 C0,2.73577263 1.48433413,1.26807645 3.31603038,1.26807645 L4.41640892,1.26807645 C4.54667412,1.22014585 4.68436345,1.19492536 4.82335034,1.19353719 C5.48902052,1.19353719 6.02927988,1.7276746 6.02927988,2.38580174 C6.02927988,3.04392888 5.48902052,3.57806629 4.82335034,3.57806626 C4.67991866,3.57806626 4.54421021,3.54879596 4.41640892,3.503527 L3.91899513,3.503527 C3.47922283,3.50347878 3.05744845,3.67617669 2.74648247,3.98361897 C2.43551649,4.29106125 2.26083923,4.7080563 2.26088801,5.14284533 L2.26088801,28.5387192 C2.26083924,28.9735082 2.4355165,29.3905032 2.74648248,29.6979455 C3.05744846,30.0053878 3.47922283,30.1780857 3.91899513,30.1780374 L12.6743966,30.1780374 C13.0215749,30.9614269 13.4329296,31.7111828 13.9102997,32.413488 L3.31603038,32.413488 L3.31603038,32.4131244 Z M9.04355205,4.76996722 C8.37776325,4.76966625 7.83811083,4.23612889 7.83780641,3.57788448 L7.83780641,1.19353719 C7.83780641,0.535591863 8.37806577,0.00145441174 9.04355205,0.00145441174 C9.70903832,0.00145441174 10.2494816,0.535591828 10.2494816,1.19353719 L10.2494816,3.57788448 C10.2491771,4.23619986 9.70941265,4.76976658 9.04355205,4.76996722 L9.04355205,4.76996722 Z M25.7936154,25.0902785 C23.5062476,25.0902785 21.6451295,23.2506132 21.6451295,20.9889829 C21.6451295,18.7273527 23.5060638,16.8875056 25.7936154,16.8875056 C28.0811669,16.8875056 29.9419173,18.7273527 29.9419173,20.9889829 C29.9419173,23.2506132 28.0809831,25.0902785 25.7936154,25.0902785 Z M25.7936154,18.2577554 C24.2704811,18.2577554 23.0312681,19.4831081 23.0312681,20.9889829 C23.0312681,22.494676 24.2704811,23.7198469 25.7936154,23.7198469 C27.3167496,23.7198469 28.5559627,22.494676 28.5559627,20.9889829 C28.5559627,19.4831081 27.3167496,18.2577554 25.7936154,18.2577554 Z M31.2966113,31.0110591 C30.9483297,31.0110591 30.6298378,30.7972587 30.6298378,30.5338261 C30.6298378,27.6967891 28.6631686,25.7520416 25.7934315,25.7520417 C22.9240621,25.7520417 20.9570251,27.6966073 20.9570251,30.5338261 C20.9570251,30.7972587 20.7115363,31.0608731 20.2779313,31.0608732 C19.8860685,31.0608732 19.6236621,30.7972587 19.6236621,30.5338261 C19.6236621,28.9045069 20.2654269,27.3726342 21.4307175,26.2205482 C22.596192,25.0684621 24.1454381,24.4339694 25.7934315,24.4339694 C27.4414248,24.4339694 28.9908549,25.0684621 30.1563293,26.2205482 C31.321436,27.3726342 31.9632009,28.9045069 31.9632009,30.5338261 C31.9632009,30.7974405 31.6759697,31.0110591 31.2966113,31.0110591 L31.2966113,31.0110591 Z" id="Shape"></path>
                        </g>
                    </g>
                </g>
            </g>
        </g>
    </g>
</svg>