<?xml version="1.0" standalone="no"?><!DOCTYPE svg PUBLIC "-//W3C//DTD SVG 1.1//EN" "http://www.w3.org/Graphics/SVG/1.1/DTD/svg11.dtd"><svg t="1504851664896" class="icon" style="" viewBox="0 0 1024 1024" version="1.1" xmlns="http://www.w3.org/2000/svg" p-id="16448" xmlns:xlink="http://www.w3.org/1999/xlink" width="200" height="200"><defs><style type="text/css"></style></defs><path d="M867.2 284.8c-12.8-12.8-32-12.8-44.8 0-12.8 12.8-12.8 32 0 44.8 44.8 44.8 73.6 108.8 73.6 182.4s-28.8 134.4-73.6 182.4c-12.8 12.8-12.8 32 0 44.8 12.8 12.8 32 12.8 44.8 0 57.6-57.6 92.8-137.6 92.8-227.2S924.8 342.4 867.2 284.8zM774.4 377.6c-12.8-12.8-32-12.8-44.8 0-12.8 12.8-12.8 32 0 44.8 22.4 22.4 38.4 54.4 38.4 89.6s-12.8 67.2-38.4 89.6c-12.8 12.8-12.8 32 0 44.8 12.8 12.8 32 12.8 44.8 0 35.2-35.2 57.6-83.2 57.6-134.4S809.6 409.6 774.4 377.6zM556.8 144 320 288l0 448 236.8 144c44.8 28.8 83.2 6.4 83.2-44.8L640 192C640 137.6 601.6 118.4 556.8 144zM64 384l0 256c0 54.4 41.6 96 96 96l96 0L256 288 160 288C105.6 288 64 329.6 64 384z" p-id="16449"></path></svg>