<?xml version="1.0" encoding="UTF-8"?>
<svg width="38px" height="34px" viewBox="0 0 38 34" version="1.1" xmlns="http://www.w3.org/2000/svg" xmlns:xlink="http://www.w3.org/1999/xlink">
    <!-- Generator: Sketch 41.2 (35397) - http://www.bohemiancoding.com/sketch -->
    <title>地点</title>
    <desc>Created with Sketch.</desc>
    <defs></defs>
    <g id="Page-1" stroke="none" stroke-width="1" fill="none" fill-rule="evenodd">
        <g id="招商会详情微信分享页面" transform="translate(-23.000000, -1635.000000)" fill="#50ABF1">
            <g id="消息一" transform="translate(0.000000, 148.000000)">
                <g id="招商会信息" transform="translate(0.000000, 1457.000000)">
                    <g id="会议地点">
                        <g id="地点" transform="translate(23.000000, 30.000000)">
                            <path d="M36.7191134,7.22413938 L33.2053355,6.1819722 C32.5426737,2.49003959 29.496657,0.0342946059 25.6988812,0.0342946059 C21.9902028,0.0342946059 18.9497547,2.40134448 18.192427,5.89925664 L12.8632899,7.41261642 C12.6739579,7.50685494 12.484626,7.50685494 12.38996,7.50685494 C12.2006281,7.50685494 12.0112962,7.50685494 11.8219642,7.41261642 L2.5057194,4.76285099 C2.31638747,4.66861247 2.12705554,4.66861247 1.93772361,4.66861247 C0.890829376,4.66861247 0.0388356795,5.52230261 0.0388356795,6.55892633 L0.0388356795,28.8879122 C0.0388356795,29.7416023 0.606831477,30.4955105 1.36972781,30.6839875 L11.8219642,33.8991841 C12.0112962,33.9934226 12.2006281,33.9934226 12.38996,33.9934226 C12.579292,33.9934226 12.7686239,33.9934226 12.8632899,33.8991841 L25.1253168,30.401272 C25.3146487,30.3070334 25.5039807,30.3070334 25.5986466,30.3070334 C25.7879785,30.3070334 25.9773105,30.3070334 26.1666424,30.401272 L35.4828872,33.2395144 C35.6722192,33.333753 35.8615511,33.333753 36.050883,33.333753 C37.0977773,33.333753 37.949771,32.4800628 37.949771,31.4434391 L37.949771,9.02021472 C38.0500055,8.17206804 37.4764411,7.41261642 36.7191134,7.22413938 L36.7191134,7.22413938 Z M12.38996,9.49695073 L12.38996,32.1086521 L1.93772361,28.8934556 L1.93772361,6.56446974 L11.3486344,9.30847369 C11.7217297,9.40271221 12.0057276,9.40271221 12.38996,9.49695073 C12.38996,9.40271221 12.38996,9.40271221 12.38996,9.49695073 C12.38996,9.40271221 12.38996,9.49695073 12.38996,9.49695073 L12.38996,9.49695073 Z M25.6933126,1.92460847 C28.9230926,1.92460847 31.3955449,4.29165834 31.3955449,7.41261642 C31.3955449,8.64326064 30.9222151,9.96814334 29.9699868,11.2930261 C28.7337607,12.9948629 27.0242047,15.5503898 25.6933126,17.5349422 C24.3624205,15.6446283 22.6528645,12.9948629 21.4166383,11.2930261 C20.4644101,9.96814334 19.9910802,8.64326064 19.9910802,7.41261642 C19.9910803,4.29165839 22.4635326,1.92460847 25.6933126,1.92460847 L25.6933126,1.92460847 Z M36.145549,31.5376776 L26.8348728,28.6994351 L26.6455408,28.6994351 L26.6455408,28.5109581 L26.6455408,22.8344731 C26.6455408,22.269042 26.266877,21.8865444 25.6933126,21.8865444 C25.1253168,21.8865444 24.7410843,22.2634985 24.7410843,22.8344731 L24.7410843,28.5109581 L24.7410843,28.6994351 L24.5517524,28.6994351 L14.2888479,31.5376776 L14.2888479,9.49695073 C14.2888479,9.30847369 14.194182,9.21423517 14.194182,9.02575813 L18.1868583,7.88935243 C18.2815243,9.59118925 19.0444206,11.0103105 19.8964143,12.3351932 C21.0379745,13.9427915 22.8421964,16.5925569 24.1730886,18.4828708 C24.5517524,19.0483019 25.1253168,19.3365609 25.7879786,19.3365609 C26.4506404,19.3365609 27.0242048,19.0538454 27.4028686,18.4828708 C28.6390948,16.5925569 30.4433167,13.9427915 31.6795429,12.3351932 C32.5371052,11.104549 33.2944329,9.68542777 33.3890989,8.07782947 L36.240215,8.93151961 L36.240215,31.543221 L36.145549,31.543221 L36.145549,31.5376776 Z M25.6933126,10.439336 C27.3082026,10.439336 28.5444287,9.20869176 28.5444287,7.60109351 C28.5444287,5.99349521 27.3082026,4.76285103 25.6933126,4.76285103 C24.0784226,4.76285103 22.8421964,5.99349525 22.8421964,7.60109351 C22.8421964,9.20869176 24.0784226,10.439336 25.6933126,10.439336 L25.6933126,10.439336 Z M25.6933126,6.65870826 C26.2613084,6.65870826 26.6455408,7.03566234 26.6455408,7.60663692 C26.6455408,8.17206804 26.266877,8.55456558 25.6933126,8.55456558 C25.1253168,8.55456558 24.7410843,8.1776115 24.7410843,7.60663692 C24.7410844,7.03566234 25.1253168,6.65870826 25.6933126,6.65870826 L25.6933126,6.65870826 Z" id="Shape"></path>
                        </g>
                    </g>
                </g>
            </g>
        </g>
    </g>
</svg>