<?xml version="1.0" standalone="no"?><!DOCTYPE svg PUBLIC "-//W3C//DTD SVG 1.1//EN" "http://www.w3.org/Graphics/SVG/1.1/DTD/svg11.dtd"><svg t="1509440048781" class="icon" style="" viewBox="0 0 1024 1024" version="1.1" xmlns="http://www.w3.org/2000/svg" p-id="11889" xmlns:xlink="http://www.w3.org/1999/xlink" width="200" height="200"><defs><style type="text/css"></style></defs><path d="M793.6 102.4l-179.2 0 0-25.6c0-42.3424-34.4576-76.8-76.8-76.8l-102.4 0c-42.3424 0-76.8 34.4576-76.8 76.8l0 25.6-179.2 0c-42.3424 0-76.8 34.4576-76.8 76.8l0 51.2c0 33.3824 21.4016 61.8496 51.2 72.3968l0 644.4032c0 42.3424 34.4576 76.8 76.8 76.8l512 0c42.3424 0 76.8-34.4576 76.8-76.8l0-644.4032c29.7984-10.5472 51.2-39.0144 51.2-72.3968l0-51.2c0-42.3424-34.4576-76.8-76.8-76.8zM409.6 76.8c0-14.1312 11.4688-25.6 25.6-25.6l102.4 0c14.1312 0 25.6 11.4688 25.6 25.6l0 25.6-153.6 0 0-25.6zM742.4 972.8l-512 0c-14.1312 0-25.6-11.4688-25.6-25.6l0-640 563.2 0 0 640c0 14.1312-11.4688 25.6-25.6 25.6zM819.2 230.4c0 14.1312-11.4688 25.6-25.6 25.6l-614.4 0c-14.1312 0-25.6-11.4688-25.6-25.6l0-51.2c0-14.1312 11.4688-25.6 25.6-25.6l614.4 0c14.1312 0 25.6 11.4688 25.6 25.6l0 51.2z" p-id="11890"></path><path d="M640 358.4c-14.1312 0-25.6 11.4688-25.6 25.6l0 512c0 14.1312 11.4688 25.6 25.6 25.6s25.6-11.4688 25.6-25.6l0-512c0-14.1312-11.4688-25.6-25.6-25.6z" p-id="11891"></path><path d="M486.4 358.4c-14.1312 0-25.6 11.4688-25.6 25.6l0 512c0 14.1312 11.4688 25.6 25.6 25.6s25.6-11.4688 25.6-25.6l0-512c0-14.1312-11.4688-25.6-25.6-25.6z" p-id="11892"></path><path d="M332.8 358.4c-14.1312 0-25.6 11.4688-25.6 25.6l0 512c0 14.1312 11.4688 25.6 25.6 25.6s25.6-11.4688 25.6-25.6l0-512c0-14.1312-11.4688-25.6-25.6-25.6z" p-id="11893"></path></svg>