<?xml version="1.0" standalone="no"?><!DOCTYPE svg PUBLIC "-//W3C//DTD SVG 1.1//EN" "http://www.w3.org/Graphics/SVG/1.1/DTD/svg11.dtd"><svg t="1496282324990" class="icon" style="" viewBox="0 0 1024 1024" version="1.1" xmlns="http://www.w3.org/2000/svg" p-id="2591" xmlns:xlink="http://www.w3.org/1999/xlink" width="200" height="200"><defs><style type="text/css"></style></defs><path d="M604.249519 127.972627c-123.657344 0-224.24425 97.329722-224.24425 217.009476 0 82.706677 48.043203 154.730037 118.535697 191.34291C351.760994 580.1174 244.79889 712.62532 244.79889 868.862687c0 11.45796 9.565866 20.72809 21.409612 20.72809 11.83249 0 21.410636-9.270131 21.410636-20.72809 0-168.961156 142.043087-306.45974 315.035046-306.511929 2.308579 0.224104 4.578272 0.062422 6.742565-0.421602 121.251551-2.65855 219.073484-98.933243 219.073484-216.947054C828.470233 225.302349 727.870024 127.972627 604.249519 127.972627zM604.249519 520.56098c-100.0466 0-181.424003-78.764901-181.424003-175.579901s81.378425-175.579901 181.424003-175.579901c100.034321 0 181.399443 78.764901 181.399443 175.579901S704.28384 520.56098 604.249519 520.56098zM858.775446 623.24771c-8.341992-8.136308-21.886473-8.136308-30.27963-0.052189-8.368598 8.084119-8.394181 21.191648-0.052189 29.302373 59.607586 57.882292 92.437296 134.716214 92.437296 216.365816 0 11.45796 9.577123 20.72809 21.423939 20.72809 11.818163 0 21.397333-9.270131 21.397333-20.72809C963.702194 776.167518 926.443615 688.932712 858.775446 623.24771zM377.751948 525.865799c0-0.029676-0.004093-0.060375-0.004093-0.090051s0.004093-0.060375 0.004093-0.090051c0-11.431354-9.578146-20.701484-21.409612-20.701484-77.670987 0-140.858098-65.35038-140.858098-145.660474s63.187111-145.660474 140.858098-145.660474c11.831466 0 21.409612-9.270131 21.409612-20.72809 0-11.45796-9.578146-20.727067-21.409612-20.727067-101.282754 0-183.678346 83.940784-183.678346 187.115632 0 68.63417 36.488029 128.753409 90.738607 161.308873C147.898957 560.354288 64.481082 671.990854 64.481082 803.154149c0 11.432377 9.578146 20.701484 21.409612 20.701484 11.83249 0 21.410636-9.270131 21.410636-20.701484 0-141.490501 111.710244-256.56026 249.041006-256.56026C368.173802 546.593889 377.751948 537.323758 377.751948 525.865799z" p-id="2592"></path></svg>