<?xml version="1.0" standalone="no"?><!DOCTYPE svg PUBLIC "-//W3C//DTD SVG 1.1//EN" "http://www.w3.org/Graphics/SVG/1.1/DTD/svg11.dtd"><svg t="1496300866351" class="icon" style="" viewBox="0 0 1024 1024" version="1.1" xmlns="http://www.w3.org/2000/svg" p-id="22721" xmlns:xlink="http://www.w3.org/1999/xlink" width="200" height="200"><defs><style type="text/css"></style></defs><path d="M512.013815 122.812093c-155.092287 0-281.241382 120.366392-281.241382 268.345678 0 145.05877 133.146463 321.141114 203.579605 393.974933 28.913517 29.896914 63.204507 70.808696 63.552431 71.213925 3.353374 4.019547 8.413624 6.389524 13.820774 6.476505l0.288572 0c5.26184 0 10.293437-2.226714 13.733792-6.042623 0.375553-0.433882 37.211507-41.636283 68.38039-72.514547 73.959455-73.323982 199.098547-238.622726 199.098547-393.107169C793.226544 243.178485 667.076426 122.812093 512.013815 122.812093zM568.105321 760.672616c-20.066011 19.863397-41.837874 43.282782-55.6873 58.404178-12.895705-15.005762-33.019021-37.876656-51.52449-56.987922C382.885875 681.362292 266.769274 515.977591 266.769274 391.157771c0-129.156592 110.015649-234.198973 245.24454-234.198973 135.199215 0 245.186212 105.042381 245.186212 234.198973C757.199003 534.857591 638.335848 691.048909 568.105321 760.672616zM512.013815 259.601526c-75.493391 0-136.933719 58.579163-136.933719 130.602523s61.441351 130.573871 136.933719 130.573871c75.492368 0 136.933719-58.550511 136.933719-130.573871S587.506183 259.601526 512.013815 259.601526zM512.013815 486.658845c-55.629995 0-100.908224-43.255153-100.908224-96.455819s45.278229-96.484472 100.908224-96.484472c55.628972 0 100.907201 43.283806 100.907201 96.484472S567.642786 486.658845 512.013815 486.658845z" p-id="22722"></path></svg>