<?xml version="1.0" standalone="no"?><!DOCTYPE svg PUBLIC "-//W3C//DTD SVG 1.1//EN" "http://www.w3.org/Graphics/SVG/1.1/DTD/svg11.dtd"><svg t="1496282333830" class="icon" style="" viewBox="0 0 1024 1024" version="1.1" xmlns="http://www.w3.org/2000/svg" p-id="2935" xmlns:xlink="http://www.w3.org/1999/xlink" width="200" height="200"><defs><style type="text/css"></style></defs><path d="M479.797066 567.539944c145.341203 0 263.558651-118.105908 263.558651-263.287475 0-145.1918-118.216425-263.297708-263.558651-263.297708S216.232275 159.060669 216.232275 304.252469c0 103.550401 60.151985 193.312774 147.381675 236.284471-61.046355 18.655895-116.965945 52.074006-163.361625 98.442056C125.572462 713.572902 84.452949 812.749692 84.452949 918.251537c0 12.095479 9.82067 21.917172 21.966291 21.917172 12.133342 0 21.960151-9.821693 21.960151-21.917172 0-93.777827 36.548404-181.939749 102.929254-248.25306 63.960731-63.913659 148.271952-100.119255 238.353596-102.673427C473.027895 567.453986 476.402759 567.539944 479.797066 567.539944zM260.158716 304.252469c0-120.986515 98.53927-219.414245 219.638349-219.414245s219.625046 98.42773 219.625046 219.414245c0 119.779014-96.590895 217.437218-216.042451 219.35694-1.181919-0.196475-2.388397-0.323365-3.626597-0.323365-3.364631 0.001023-6.722098 0.044002-10.073426 0.127913C353.259114 518.113231 260.158716 421.840584 260.158716 304.252469zM941.298951 867.861894 737.270115 639.733173c-5.862521-6.5553-15.361873-6.5553-21.212114 0-5.862521 6.554276-5.862521 17.166985 0 23.710005l178.439018 199.49559L390.831848 862.938768c-8.280594 0-14.996552 7.495718-14.996552 16.773012 0 9.251711 6.715959 16.770965 14.996552 16.770965l539.879977 0c6.062066 0 11.528568-4.080945 13.852496-10.339486C946.890296 879.860159 945.602977 872.6612 941.298951 867.861894z" p-id="2936"></path></svg>