<?xml version="1.0" standalone="no"?><!DOCTYPE svg PUBLIC "-//W3C//DTD SVG 1.1//EN" "http://www.w3.org/Graphics/SVG/1.1/DTD/svg11.dtd"><svg t="1496282271594" class="icon" style="" viewBox="0 0 1024 1024" version="1.1" xmlns="http://www.w3.org/2000/svg" p-id="1581" xmlns:xlink="http://www.w3.org/1999/xlink" width="200" height="200"><defs><style type="text/css"></style></defs><path d="M512.01842 895.530047c-25.710568 0-47.465035-15.82236-55.377239-39.555901H415.108253c9.888208 45.48903 49.443086 79.109756 96.909143 79.109755 47.468105 0 87.021959-33.621748 96.909144-79.109755h-41.532929c-7.90811 23.734564-29.6636 39.555901-55.375191 39.555901zM826.482461 755.110947l-37.575804-57.355289V420.868443c0-132.508943-92.956112-243.264443-217.553874-270.954085v-25.711591c0-33.620725-25.709545-59.332317-59.332317-59.332317-33.621748 0-59.332317 25.711592-59.332317 59.332317v25.711591c-124.599809 27.688619-217.553874 138.443096-217.553874 270.954085v276.886191l-37.576827 57.355289c-17.799388 25.711592 0 61.311391 31.643698 61.311391H792.861736c33.620725-0.001023 51.420113-35.599799 33.620725-61.310367zM492.240981 124.20379c0-11.865235 7.91118-19.777439 19.777439-19.777439 11.867282 0 19.778462 7.91118 19.778462 19.777439v19.778462h-39.556925l0.001024-19.778462zM229.199099 776.865413l37.576827-57.355289 5.933129-9.888208V420.868443c0-130.531915 106.799398-237.331313 237.331314-237.331313S747.371682 290.336528 747.371682 420.868443v288.75245l5.934153 9.889231 37.576827 57.355289H229.199099z" p-id="1582"></path></svg>