<?xml version="1.0" standalone="no"?><!DOCTYPE svg PUBLIC "-//W3C//DTD SVG 1.1//EN" "http://www.w3.org/Graphics/SVG/1.1/DTD/svg11.dtd"><svg t="1496282300642" class="icon" style="" viewBox="0 0 1024 1024" version="1.1" xmlns="http://www.w3.org/2000/svg" p-id="2014" xmlns:xlink="http://www.w3.org/1999/xlink" width="200" height="200"><defs><style type="text/css"></style></defs><path d="M682.47565 600.48631c64.88273-51.123354 106.480126-129.978307 106.480126-218.570017 0-153.899112-126.061091-278.795681-281.335527-278.795681-155.48626 0-281.44195 124.896568-281.44195 278.795681 0 84.251869 37.680181 159.614278 97.16497 210.737632-95.471398 66.258053-154.215314 182.475961-154.215314 307.267129 0 11.007705 8.890484 19.899212 19.899213 19.899212 11.007705 0 19.899212-8.891508 19.899212-19.899212 0-116.746958 56.838519-224.708831 148.288324-281.759176 0.106424-0.105401 0.211824-0.211824 0.318249-0.211824 43.396369 27.202549 94.836949 42.86732 149.981896 42.86732 50.806129 0 98.435916-13.335726 139.609665-36.622082 21.38096 14.500249 40.856523 31.965016 58.320266 52.181453 4.022617 4.551666 9.526981 6.879688 15.030322 6.879687 4.657067 0 9.208732-1.587148 13.019525-4.868891 8.255011-7.196912 9.207709-19.792788 2.010796-28.154223-15.984043-18.629289-33.766035-35.352159-53.029773-49.747008zM265.9757 382.021693c0-131.777279 108.385523-239.10368 241.538126-239.103679 133.153626 0 241.538125 107.221 241.538125 239.103679 0 131.777279-108.279099 238.998279-241.431702 238.998279-133.153626 0-241.644549-107.1156-241.644549-238.998279z m0 0" p-id="2015"></path><path d="M507.620249 536.76708c-62.766532 0-113.783463-43.289945-113.783462-96.53052 0-11.007705 8.890484-19.899212 19.898189-19.899213 11.008728 0 19.899212 8.891508 19.899212 19.899213 0 31.224142 33.234939 56.733119 73.879638 56.733119 40.750099 0 73.879638-25.402553 73.879637-56.733119 0-11.007705 8.891508-19.899212 19.899213-19.899213s19.899212 8.891508 19.899212 19.899213c0.105401 53.240575-50.91153 96.53052-113.571639 96.53052z m0 0M883.370099 733.427088c-3.810792-3.598968-11.325953-13.018501-14.606673-8.890484L742.384088 879.916441l-78.854953-83.829244c-3.597945-3.809769-11.219529 5.080715-14.712073 8.996908-3.492544 3.916193-1.587148 17.993816 2.010797 21.804608l85.629239 91.132581c1.693572 1.798972 4.021593 2.858094 6.350638 2.858094h0.317225c2.434445-0.105401 4.868891-1.269923 6.457062-3.387144l132.623554-163.212222c3.492544-4.129041 4.868891-17.253966 1.164522-20.852934z" p-id="2016"></path></svg>