<?xml version="1.0" standalone="no"?><!DOCTYPE svg PUBLIC "-//W3C//DTD SVG 1.1//EN" "http://www.w3.org/Graphics/SVG/1.1/DTD/svg11.dtd"><svg t="1496367619021" class="icon" style="" viewBox="0 0 1024 1024" version="1.1" xmlns="http://www.w3.org/2000/svg" p-id="31587" xmlns:xlink="http://www.w3.org/1999/xlink" width="200" height="200"><defs><style type="text/css"></style></defs><path d="M511.677147 959.541943c-247.317759 0-447.76093-200.442148-447.76093-447.759907 0-247.26864 200.443172-447.76093 447.76093-447.76093 247.267617 0 447.76093 200.49229 447.76093 447.76093C959.438077 759.099794 758.944763 959.541943 511.677147 959.541943zM550.157553 255.667937c0-21.188578-17.190521-38.379099-38.379099-38.379099-21.189601 0-38.380122 17.190521-38.380122 38.379099l0 358.207311c0 21.188578 17.190521 38.380122 38.380122 38.380122 21.188578 0 38.379099-17.191544 38.379099-38.380122L550.157553 255.667937zM512.377088 729.463824c-21.189601 0-38.380122 17.190521-38.380122 38.379099s17.190521 38.380122 38.380122 38.380122c21.188578 0 38.379099-17.191544 38.379099-38.380122S533.565666 729.463824 512.377088 729.463824z" p-id="31588"></path></svg>