<?xml version="1.0" standalone="no"?><!DOCTYPE svg PUBLIC "-//W3C//DTD SVG 1.1//EN" "http://www.w3.org/Graphics/SVG/1.1/DTD/svg11.dtd"><svg t="1496283253467" class="icon" style="" viewBox="0 0 1024 1024" version="1.1" xmlns="http://www.w3.org/2000/svg" p-id="17085" xmlns:xlink="http://www.w3.org/1999/xlink" width="200" height="200"><defs><style type="text/css"></style></defs><path d="M628.465037 87.983867c-115.970268-29.871331-237.140978-14.564717-341.161077 43.188638C183.324794 188.951443 108.93862 282.20022 77.86081 393.753899c-64.186881 230.296083 78.419024 467.86071 317.880861 529.59268 38.693254 9.975189 77.875648 14.909571 116.793006 14.909571 81.497129 0 161.799036-21.647019 233.771231-63.906495 10.558473-6.236028 13.954827-19.526729 7.482415-29.740348-6.500041-10.161431-20.320814-13.397125-30.933523-7.163143-95.715969 56.216349-207.747531 71.947636-315.480184 44.144406C191.867354 826.041416 63.521221 612.218516 121.275599 404.948869c27.960819-100.409874 94.919836-184.346565 188.513468-236.31824 93.606934-51.996235 202.639187-65.764819 307.030745-38.891775 104.390535 26.927279 191.643762 91.311659 245.682515 181.324742 54.012148 90.038666 68.391646 194.933691 40.430828 295.343565-9.921977 35.469839-25.25622 69.718875-45.577035 101.844549-6.472412 10.187013-3.103688 23.50432 7.481392 29.738301 10.638291 6.181793 24.460088 2.946099 30.933523-7.240915 22.549575-35.627429 39.581484-73.698512 50.563606-113.14492C1010.479567 387.280464 867.886965 149.690254 628.465037 87.983867zM534.579763 311.090201c0-11.93789-10.053983-21.621437-22.484084-21.621437-12.429077 0-22.469758 9.683547-22.469758 21.621437l0 237.830687c0 11.93789 10.041704 21.621437 22.469758 21.621437 12.429077 0 22.484084-9.683547 22.484084-21.621437L534.579763 311.090201zM512.083399 635.377982c-12.415774 0-22.469758 9.683547-22.469758 21.621437l0 43.240827c0 11.93789 10.053983 21.621437 22.469758 21.621437s22.469758-9.683547 22.469758-21.621437l0-43.240827C534.553157 645.061528 524.499174 635.377982 512.083399 635.377982z" p-id="17086"></path></svg>