<?xml version="1.0" standalone="no"?><!DOCTYPE svg PUBLIC "-//W3C//DTD SVG 1.1//EN" "http://www.w3.org/Graphics/SVG/1.1/DTD/svg11.dtd"><svg t="1502782965966" class="icon" style="" viewBox="0 0 1024 1024" version="1.1" xmlns="http://www.w3.org/2000/svg" p-id="2746" xmlns:xlink="http://www.w3.org/1999/xlink" width="200" height="200"><defs><style type="text/css"></style></defs><path d="M429.01 130.756c199.34-48.2 417.793 89.293 460.937 289.449 54.34 201.113-83.558 426.121-286.859 469.949-201.387 54.477-426.664-83.558-470.356-287.133-55.297-204.66 88.336-432.945 296.278-472.265m25.804 216.539c-87.656 40.277-100.625 173.945-22.254 230.058 75.364 63.352 205.891 13.93 217.77-84.648 23.621-104.859-101.582-199.203-195.516-145.41M232.81 727.404c62.395 78.918 157.969 131.074 259.004 135.715 113.868 7.371 228.012-45.875 297.778-135.852-54.614-52.972-122.469-92.839-197.563-108.269-128.203-30.719-266.922 16.519-359.219 108.406z m0 0" p-id="2747"></path></svg>