<?xml version="1.0" standalone="no"?><!DOCTYPE svg PUBLIC "-//W3C//DTD SVG 1.1//EN" "http://www.w3.org/Graphics/SVG/1.1/DTD/svg11.dtd"><svg t="1502782944379" class="icon" style="" viewBox="0 0 1024 1024" version="1.1" xmlns="http://www.w3.org/2000/svg" p-id="2623" xmlns:xlink="http://www.w3.org/1999/xlink" width="200" height="200"><defs><style type="text/css"></style></defs><path d="M422.573 130.994c173.394-39.867 364.953 55.84 436.222 219 71.407 149.367 30.993 341.332-90.792 452.196-127.524 120.015-336.692 135.304-480.735 36.046-159.199-102.539-218.59-329.32-132.574-497.664 51.062-106.086 152.781-185.14 267.879-209.578m-88.746 75.231c-102.95 56.933-173.946 168.343-179.133 286.172-4.914 70.859 14.609 141.859 50.516 202.754 59.667-58.165 135.988-93.254 215.175-116.329-23.754-28.808-47.785-60.894-48.058-100.078-7.371-77.277 61.988-150.871 139.812-146.636 76.047-1.778 141.856 71.816 134.074 147.183 0.547 41.504-27.035 74.41-52.293 104.172 79.329 16.25 151.008 57.211 210.262 111.688 37.821-65.266 57.344-141.45 49.016-216.817-10.102-119.875-88.473-230.195-196.746-281.941-100.489-49.563-225.278-45.875-322.625 9.832m141.992 168.89c-69.359 22.254-89.84 123.563-32.766 169.848 52.153 52.566 151.004 18.84 163.703-53.113 20.207-73.043-60.484-145.407-130.937-116.735M229.514 725.459c75.641 101.172 210.535 153.465 334.778 130.664 84.242-15.976 164.25-61.441 215.179-131.074-143.496-150.051-406.871-150.461-549.957 0.41z m0 0" p-id="2624"></path></svg>