<?xml version="1.0" standalone="no"?><!DOCTYPE svg PUBLIC "-//W3C//DTD SVG 1.1//EN" "http://www.w3.org/Graphics/SVG/1.1/DTD/svg11.dtd"><svg t="1502441603121" class="icon" style="" viewBox="0 0 1024 1024" version="1.1" xmlns="http://www.w3.org/2000/svg" p-id="3234" xmlns:xlink="http://www.w3.org/1999/xlink" width="200" height="200"><defs><style type="text/css"></style></defs><path d="M0 0h480c0 42.56 0 85.44-0.32 128 16.32 0.32 48.32 0.32 64.32 0.32 0.32-42.88 0.32-85.44 0.64-128.32H1024v1024H563.2l-37.44-40-24.96 11.84 4.8 28.16H0V0m198.08 132.48c-24.32 47.04 46.72 115.84 92.8 88.96 24.96-47.36-46.4-115.52-92.8-88.96m583.04-1.28c-34.24 10.56-85.76 84.48-28.48 98.24 62.4 10.88 121.6-128.96 28.48-98.24M280.64 307.52c-29.44 31.36-40.64 112.32-98.24 91.2-42.24-0.96-84.16 6.08-124.8 16-6.08 62.72 57.6 58.88 102.72 60.16l22.4-6.4c8.64-1.6 25.6-4.8 34.24-6.72 54.08 124.8 129.28 239.36 178.24 366.72 67.52 38.4 164.8 37.44 233.28 0.64 39.36-140.8 161.6-246.08 165.76-397.44 25.92 17.92 51.84 36.48 77.44 55.36 39.04-16.32 92.48-19.84 98.56-72.64-48.64-9.92-98.56-6.4-145.28 11.2-43.2-54.72-74.88-118.08-121.28-169.92-113.92-120.32-343.68-97.28-423.04 51.84M187.52 784c46.4-35.84 88.64-76.16 127.36-120-85.12-38.08-139.84 42.56-127.36 120m522.88-122.24c40.64 32.64 82.24 151.04 137.92 70.4-25.6-57.6-73.92-88.96-137.92-70.4m-284.8 216.96c15.04 26.88 43.84 36.16 86.4 28.16 18.56 5.76 127.36-8.96 69.76-37.76-50.88-5.12-109.12-15.36-156.16 9.6m-0.96 63.04c27.84 44.48 126.08 15.68 174.08 4.16-27.2-47.36-130.56-33.6-174.08-4.16z" fill="#FFFFFF" p-id="3235"></path><path d="M288.64 479.68c-18.88-136.96 115.52-266.24 251.2-247.04 115.84 16.64 212.48 131.2 194.88 249.6-13.44 79.68-74.88 138.24-122.88 199.04-3.2 34.56-6.72 69.12-9.92 103.68-60.16-0.32-120.32-0.32-180.16-0.32l-9.6-103.04c-48-62.08-111.36-120.96-123.52-201.92z" fill="#FFFFFF" p-id="3236"></path><path d="M480 0h64.64c-0.32 42.88-0.32 85.44-0.64 128.32-16 0-48 0-64.32-0.32 0.32-42.56 0.32-85.44 0.32-128zM198.08 132.48c46.4-26.56 117.76 41.6 92.8 88.96-46.08 26.88-117.12-41.92-92.8-88.96zM781.12 131.2c93.12-30.72 33.92 109.12-28.48 98.24-57.28-13.76-5.76-87.68 28.48-98.24zM280.64 307.52c79.36-149.12 309.12-172.16 423.04-51.84 46.4 51.84 78.08 115.2 121.28 169.92 46.72-17.6 96.64-21.12 145.28-11.2-6.08 52.8-59.52 56.32-98.56 72.64-25.6-18.88-51.52-37.44-77.44-55.36-4.16 151.36-126.4 256.64-165.76 397.44-68.48 36.8-165.76 37.76-233.28-0.64-48.96-127.36-124.16-241.92-178.24-366.72-8.64 1.92-25.6 5.12-34.24 6.72l-22.4 6.4c-45.12-1.28-108.8 2.56-102.72-60.16 40.64-9.92 82.56-16.96 124.8-16 57.6 21.12 68.8-59.84 98.24-91.2m8 172.16c12.16 80.96 75.52 139.84 123.52 201.92l9.6 103.04c59.84 0 120 0 180.16 0.32 3.2-34.56 6.72-69.12 9.92-103.68 48-60.8 109.44-119.36 122.88-199.04 17.6-118.4-79.04-232.96-194.88-249.6-135.68-19.2-270.08 110.08-251.2 247.04z" fill="#676971" p-id="3237"></path><path d="M187.52 784c-12.48-77.44 42.24-158.08 127.36-120a922.496 922.496 0 0 1-127.36 120zM710.4 661.76c64-18.56 112.32 12.8 137.92 70.4-55.68 80.64-97.28-37.76-137.92-70.4zM425.6 878.72c47.04-24.96 105.28-14.72 156.16-9.6 57.6 28.8-51.2 43.52-69.76 37.76-42.56 8-71.36-1.28-86.4-28.16z" fill="#676971" p-id="3238"></path><path d="M424.64 941.76c43.52-29.44 146.88-43.2 174.08 4.16-48 11.52-146.24 40.32-174.08-4.16zM500.8 995.84l24.96-11.84L563.2 1024h-57.6l-4.8-28.16z" fill="#676971" p-id="3239"></path></svg>