<?xml version="1.0" standalone="no"?><!DOCTYPE svg PUBLIC "-//W3C//DTD SVG 1.1//EN" "http://www.w3.org/Graphics/SVG/1.1/DTD/svg11.dtd"><svg t="1502698889798" class="icon" style="" viewBox="0 0 1024 1024" version="1.1" xmlns="http://www.w3.org/2000/svg" p-id="2093" xmlns:xlink="http://www.w3.org/1999/xlink" width="200" height="200"><defs><style type="text/css"></style></defs><path d="M492.216 102.66h44.375c-0.856 34.133-0.172 68.266-0.512 102.57l-50.688-0.683c1.704-33.961 2.559-68.094 6.825-101.887zM316.259 298.414c-19.625-31.231-101.887-72.531-42.496-104.277 29.527 18.601 54.273 43.519 79.703 67.242-12.289 12.629-24.578 24.918-37.207 37.035zM669.88 261.89c25.601-23.89 50.347-49.152 80.043-67.921 58.711 31.57-22.528 73.043-41.473 104.105-12.969-11.777-25.941-23.894-38.57-36.184z m-238.422 0.684c117.078-49.492 266.41 24.918 293.379 149.848 22.183 82.258-11.778 167.25-71.684 224.254-40.445 33.449-7.848 106.156-58.195 130.39-55.297 7.336-112.469 7.508-167.594-0.344-48.301-25.257-17.238-95.23-55.98-128.679-41.301-43.692-78.676-96.598-78.508-159.574-7.848-92.672 51.883-183.637 138.582-215.895M331.106 460.719c-5.972 63.316 33.793 114.859 74.41 158.207 31.235 29.867 23.043 76.289 37.719 113.496 47.274 3.754 94.551 1.703 141.824 0 3.582-27.649 5.461-55.297 11.778-82.434 30.035-52.906 89.769-90.625 93.863-156.5 17.066-93.016-51.367-189.101-144.211-204.461-104.621-23.89-216.746 63.66-215.383 171.692z m-172.715-27.477c34.477-5.633 69.461-4.437 104.11-5.461-0.516 12.285-1.707 37.035-2.219 49.32-33.625-4.949-128.516 17.411-101.891-43.859z m602.625-5.293c35.329 6.656 85.165-13.141 110.762 17.75-2.387 52.227-74.238 21.676-108.715 31.574l-2.047-49.324z m-514.218 255.32c18.09-23.894 39.254-45.226 60.074-66.902l27.309 41.641c-22.7 25.429-63.833 80.386-87.383 25.261z m442.367-25.261c6.828-10.411 20.48-31.231 27.308-41.469 19.797 27.988 90.454 66.047 33.45 94.719-23.551-13.653-44.203-31.914-60.758-53.25z m-256.684 130.73c52.567-7.508 106.668-7.508 159.235 0.344 1.195 7.68 3.754 23.039 4.949 30.719-54.102 13.824-116.223 15.191-169.984-0.172 1.535-7.848 4.437-23.207 5.8-30.891z m0 0" p-id="2094"></path><path d="M449.552 842.328c44.543-11.094 96.765-16.555 138.41 5.977 28.328 17.917-9.219 40.789-27.309 44.031-41.984 7.336-88.746 8.531-126.976-13.141-14.336-21.164-9.043-33.453 15.875-36.867z m0 0" p-id="2095"></path><path d="M476.684 910.426c23.555-17.922 57.516-8.024 76.801 11.433h-75.094l-1.707-11.433z m0 0" p-id="2096"></path></svg>