<?xml version="1.0" standalone="no"?><!DOCTYPE svg PUBLIC "-//W3C//DTD SVG 1.1//EN" "http://www.w3.org/Graphics/SVG/1.1/DTD/svg11.dtd"><svg t="1496282313265" class="icon" style="" viewBox="0 0 1024 1024" version="1.1" xmlns="http://www.w3.org/2000/svg" p-id="2243" xmlns:xlink="http://www.w3.org/1999/xlink" width="200" height="200"><defs><style type="text/css"></style></defs><path d="M497.284345 433.614745c-6.296403 0-12.593829-2.441609-17.316387-7.355525L358.272291 300.516378c-9.252735-9.574053-8.995885-24.802896 0.578168-34.087353 9.573029-9.221012 24.801872-8.995885 34.085306 0.578168l121.664967 125.742842c9.250688 9.574053 8.994861 24.800849-0.578168 34.086329C509.364475 431.365518 503.292176 433.614745 497.284345 433.614745L497.284345 433.614745z" p-id="2244"></path><path d="M505.188362 433.614745c-6.040576 0-12.08013-2.249227-16.738219-6.77838-9.573029-9.252735-9.828856-24.512277-0.578168-34.086329l121.69669-125.742842c9.28548-9.574053 24.5133-9.79918 34.087353-0.578168 9.573029 9.252735 9.829879 24.5133 0.578168 34.087353L522.536472 426.25922C517.748423 431.173137 511.483742 433.614745 505.188362 433.614745L505.188362 433.614745z" p-id="2245"></path><path d="M501.23533 748.970086c-13.298887 0-24.093744-10.794857-24.093744-24.095791L477.141586 409.519977c0-13.299911 10.794857-24.094768 24.093744-24.094768 13.300934 0 24.095791 10.794857 24.095791 24.094768l0 315.354318C525.331121 738.176253 514.536264 748.970086 501.23533 748.970086L501.23533 748.970086z" p-id="2246"></path><path d="M628.907105 502.720659 373.565603 502.720659c-13.300934 0-24.094768-10.796904-24.094768-24.095791 0-13.300934 10.794857-24.095791 24.094768-24.095791L628.907105 454.529077c13.300934 0 24.095791 10.794857 24.095791 24.095791C653.002896 491.923756 642.208039 502.720659 628.907105 502.720659L628.907105 502.720659z" p-id="2247"></path><path d="M628.907105 620.785635 373.565603 620.785635c-13.300934 0-24.094768-10.794857-24.094768-24.093744s10.794857-24.097838 24.094768-24.097838L628.907105 572.594053c13.300934 0 24.095791 10.79895 24.095791 24.097838S642.208039 620.785635 628.907105 620.785635L628.907105 620.785635z" p-id="2248"></path><path d="M501.23533 939.415556c-239.922325 0-435.090353-195.168028-435.090353-435.088306 0-239.922325 195.168028-435.091376 435.090353-435.091376 239.923348 0 435.123099 195.169051 435.123099 435.091376C936.358429 744.247528 741.124909 939.415556 501.23533 939.415556L501.23533 939.415556zM501.23533 117.42541c-213.353203 0-386.900817 173.547615-386.900817 386.901841 0 213.353203 173.547615 386.900817 386.900817 386.900817 213.354226 0 386.93254-173.548638 386.93254-386.900817C888.16787 290.973024 714.55681 117.42541 501.23533 117.42541L501.23533 117.42541z" p-id="2249"></path></svg>