<?xml version="1.0" standalone="no"?><!DOCTYPE svg PUBLIC "-//W3C//DTD SVG 1.1//EN" "http://www.w3.org/Graphics/SVG/1.1/DTD/svg11.dtd"><svg t="1496282305511" class="icon" style="" viewBox="0 0 1024 1024" version="1.1" xmlns="http://www.w3.org/2000/svg" p-id="2128" xmlns:xlink="http://www.w3.org/1999/xlink" width="200" height="200"><defs><style type="text/css"></style></defs><path d="M936.152233 687.612647l-415.687444 253.783007c-3.670599 2.233877-7.79964 3.348258-11.935843 3.348258-4.13518 0-8.272407-1.11438-11.938913-3.348258L87.853907 691.858344c-10.770298-6.594185-14.192234-20.684088-7.601118-31.484062 6.573719-10.768251 20.674878-14.18814 31.477922-7.599072l396.793118 242.250346 403.74853-246.49809c10.79588-6.615675 24.886807-3.191692 31.479969 7.603165C950.344466 666.928558 946.924577 681.014368 936.152233 687.612647L936.152233 687.612647z" p-id="2129"></path><path d="M936.152233 527.369036l-415.687444 253.776867c-3.670599 2.233877-7.79964 3.350304-11.935843 3.350304-4.13518 0-8.272407-1.116427-11.938913-3.350304L87.853907 531.611663c-10.770298-6.594185-14.192234-20.682042-7.601118-31.475875 6.573719-10.800997 20.674878-14.196327 31.477922-7.605212l396.793118 242.2483 403.74853-246.489904c10.79588-6.617721 24.886807-3.197832 31.479969 7.603165C950.344466 506.683924 946.924577 520.768711 936.152233 527.369036L936.152233 527.369036z" p-id="2130"></path><path d="M936.150186 328.036151 527.416108 78.501912c-7.335059-4.466732-16.539698-4.466732-23.874757 0l-415.687444 253.79017c-6.7968 4.152577-10.95347 11.553127-10.95347 19.536962 0 7.979742 4.15667 15.382339 10.95347 19.541055l408.736125 249.533216c3.664459 2.233877 7.801686 3.350304 11.94096 3.350304 4.131087 0 8.263198-1.116427 11.933797-3.350304l415.685397-253.78403c6.7968-4.158716 10.95347-11.561313 10.95347-19.544125C947.103656 339.597465 942.946986 332.192821 936.150186 328.036151zM508.528945 574.533218 143.727449 351.821881l371.749746-226.952942L880.282784 347.582323 508.528945 574.533218z" p-id="2131"></path></svg>