<?xml version="1.0" standalone="no"?><!DOCTYPE svg PUBLIC "-//W3C//DTD SVG 1.1//EN" "http://www.w3.org/Graphics/SVG/1.1/DTD/svg11.dtd"><svg t="1496282291593" class="icon" style="" viewBox="0 0 1024 1024" version="1.1" xmlns="http://www.w3.org/2000/svg" p-id="1798" xmlns:xlink="http://www.w3.org/1999/xlink" width="200" height="200"><defs><style type="text/css"></style></defs><path d="M512 77.43051c-239.926418 0-435.106726 195.188494-435.106726 435.106726 0 239.926418 195.180308 435.106726 435.106726 435.106725 113.924679 0 221.638913-43.733037 303.302841-123.141598 84.997859-82.645279 131.803885-193.439664 131.803885-311.965127 0-239.918231-195.180308-435.106726-435.106726-435.106726zM236.738819 804.746414c45.944402-108.091834 153.820318-179.952488 271.910877-179.952488 119.624495-0.008186 229.039463 74.001411 273.828552 184.643324C708.346877 877.074719 612.81101 914.173662 512 914.173662c-106.427938 0-203.317639-41.617863-275.261181-109.427248z m141.006478-347.668281c0-74.023924 60.222593-134.246517 134.254703-134.246517 74.015737 0 134.23833 60.222593 134.23833 134.246517s-60.222593 134.246517-134.23833 134.246517c-74.03211 0-134.254703-60.222593-134.254703-134.246517z m430.233741 326.959633c-40.777729-89.434915-120.198569-155.500587-213.3092-181.081195 50.738591-28.869514 85.038792-83.439364 85.038792-145.878438 0-92.483344-75.241658-167.716816-167.70863-167.716816-92.483344 0-167.725002 75.233472-167.725002 167.716816 0 61.562101 33.345456 115.470895 82.917478 144.643308-93.364411 24.164353-173.375699 88.87312-215.514426 177.220261-63.003939-70.944795-101.3155-164.28567-101.3155-266.404466 0-221.458811 180.177616-401.636427 401.636427-401.636427s401.636427 180.177616 401.636426 401.636427c0.001023 101.715613-37.354769 197.253526-105.656365 271.50053z" p-id="1799"></path></svg>