<?xml version="1.0" standalone="no"?><!DOCTYPE svg PUBLIC "-//W3C//DTD SVG 1.1//EN" "http://www.w3.org/Graphics/SVG/1.1/DTD/svg11.dtd"><svg t="1496282318627" class="icon" style="" viewBox="0 0 1024 1024" version="1.1" xmlns="http://www.w3.org/2000/svg" p-id="2361" xmlns:xlink="http://www.w3.org/1999/xlink" width="200" height="200"><defs><style type="text/css"></style></defs><path d="M532.856515 936.992367c-247.915369 0-449.612091-201.697745-449.612091-449.607998C83.244424 239.469 284.941146 37.770232 532.856515 37.770232c247.912299 0 449.606974 201.697745 449.606974 449.613114 0 78.363765-20.472264 155.524123-59.193147 223.144196-5.834892 10.199293-18.829857 13.744026-29.046546 7.884574-10.205433-5.840008-13.736862-18.841114-7.890714-29.05064 35.033911-61.180408 53.56394-131.029242 53.56394-201.983247C939.898045 262.928295 757.308497 80.329537 532.856515 80.329537c-224.447888 0-407.048693 182.597735-407.048693 407.048693 0 224.451982 182.600805 407.046646 407.048693 407.046646 86.205361 0 168.568207-26.610054 238.182704-76.940346 9.543354-6.888897 22.840194-4.738931 29.719882 4.782933 6.888897 9.525957 4.745071 22.834055-4.776793 29.717835C719.052195 907.59585 628.070041 936.992367 532.856515 936.992367L532.856515 936.992367z" p-id="2362"></path><path d="M751.78162 793.430694 313.927317 793.430694 313.927317 181.328835l437.854303 0L751.78162 793.430694zM339.509972 767.848039l386.688993 0L726.198965 206.91149 339.509972 206.91149 339.509972 767.848039z" p-id="2363"></path><path d="M505.609964 701.137685l51.857065 0 0 29.820166-51.857065 0 0-29.820166Z" p-id="2364"></path></svg>