<?xml version="1.0" standalone="no"?><!DOCTYPE svg PUBLIC "-//W3C//DTD SVG 1.1//EN" "http://www.w3.org/Graphics/SVG/1.1/DTD/svg11.dtd"><svg t="1496999120633" class="icon" style="" viewBox="0 0 1024 1024" version="1.1" xmlns="http://www.w3.org/2000/svg" p-id="21474" xmlns:xlink="http://www.w3.org/1999/xlink" width="200" height="200"><defs><style type="text/css"></style></defs><path d="M717.193359 957.431885c-57.472969 0-131.676995-38.285978-183.806259-70.415746-69.808926-43.017746-145.012721-102.531188-211.765031-167.570483l-0.24457-0.237407-21.191648-21.196765c-65.044412-66.75231-124.551714-141.963269-167.56946-211.770148-32.125675-52.125171-70.420863-126.32715-70.420863-183.807283 0-61.504796 43.9817-126.783545 62.891376-151.995763 14.751982-19.677155 66.305125-83.871199 110.1057-83.871199 17.986653 0 37.356816 11.768021 62.814628 38.170345 22.514783 23.345708 44.1178 52.362578 58.278311 72.595388 19.012006 27.164686 36.598546 55.600319 49.523927 80.081896 20.916379 39.639812 23.339568 56.638975 23.339568 65.97869 0 18.841114-9.843182 35.186384-29.250184 48.579415-12.786211 8.81169-28.124548 15.44783-42.955324 21.86703-10.008958 4.327562-25.987884 11.233855-32.084743 16.096607 2.128477 9.004071 11.42726 30.756491 36.536125 67.62826 23.404036 34.357506 53.66627 71.588455 81.006965 99.666954 28.073382 27.335578 65.298192 57.602929 99.671047 80.999802 36.857443 25.110911 58.604746 34.409694 67.618027 36.536125 4.852518-6.091742 11.770068-22.068621 16.092513-32.072463 6.4192-14.84101 13.05534-30.179346 21.872147-42.965557 13.393032-19.407002 29.737278-29.246091 48.579415-29.246091 9.344832 0 26.339902 2.424212 65.983807 23.335475 24.481577 12.925381 52.92335 30.510898 80.081896 49.523927 20.225647 14.165628 49.243541 35.768645 72.594365 58.278311 26.396183 25.462928 38.166251 44.827975 38.166251 62.818721 0 43.795459-64.188928 95.348602-83.865059 110.101607C843.983043 913.454278 778.699178 957.431885 717.193359 957.431885L717.193359 957.431885 717.193359 957.431885 717.193359 957.431885zM358.449835 681.888272c64.037479 62.382792 135.957485 119.321596 202.537879 160.346965 64.552202 39.784098 121.486912 62.600757 156.205645 62.600757 30.92636 0 75.018577-18.893302 117.952412-50.520627 18.820648-13.876032 35.950793-29.323862 48.232514-43.499723 11.525498-13.305027 15.737426-21.985734 16.806781-25.489534-4.451382-9.574053-30.909987-39.488363-92.65526-82.08553-24.221658-16.708544-49.26503-32.063253-70.513984-43.23571-26.676569-14.025435-37.801954-16.449647-40.34487-16.847713-0.99056 0.678452-3.897773 3.108804-8.31334 10.512425-4.944616 8.29185-9.698896 19.281135-14.296611 29.909194-5.65479 13.081946-11.509125 26.610054-18.685571 37.521568-11.6749 17.758456-26.007327 26.765597-42.596144 26.776853-0.301875 0-0.611937-0.005117-0.934279-0.021489-8.074909-0.165776-32.659841-0.689708-99.391684-46.140876-36.84721-25.099654-76.854389-57.640792-107.018386-87.061868l-0.472767-0.462534c-29.410843-30.17423-61.950957-70.176292-87.045495-107.019409-45.456285-66.730821-45.985334-91.316775-46.156226-99.395778-0.358157-16.894785 8.555863-31.470759 26.489304-43.349297 10.969842-7.258311 24.612561-13.158694 37.801954-18.872836 10.621918-4.592598 21.608134-9.344832 29.899984-14.284331 7.404644-4.411473 9.843182-7.321756 10.512425-8.31334-0.400113-2.542916-2.817162-13.662161-16.847713-40.34487-11.17348-21.24486-26.527167-46.292326-43.22957-70.50989-42.597167-61.754482-72.516594-88.207971-82.08553-92.659353-3.502777 1.073448-12.184507 5.287423-25.489534 16.811898-14.182001 12.276604-29.629831 29.410843-43.494607 48.231491-31.633465 42.924625-50.520627 87.019912-50.520627 117.947296 0 34.720779 22.811542 91.65549 62.5895 156.205645 41.034579 66.580394 97.974405 138.501424 160.346965 202.538903L358.449835 681.888272 358.449835 681.888272 358.449835 681.888272 358.449835 681.888272zM671.50376 493.142513c-9.179057 0-17.311271-6.579859-18.961864-15.934924-4.721535-26.755364-20.211321-49.996694-43.624567-65.455781-23.744797-15.669888-52.766784-21.48636-81.72635-16.382109-10.491958 1.853208-20.48659-5.151323-22.334681-15.639189-1.846044-10.482749 5.152347-20.481474 15.635095-22.328541 38.715767-6.827499 77.659731 1.047866 109.665679 22.179139 32.342616 21.347191 53.778834 53.639664 60.352553 90.933035 1.848091 10.480702-5.15337 20.481474-15.634072 22.327518C673.739684 493.044276 672.615071 493.142513 671.50376 493.142513L671.50376 493.142513 671.50376 493.142513zM787.5518 443.357644c-9.17394 0-17.310248-6.579859-18.959817-15.929808-9.153474-51.916417-39.151695-96.987938-84.467787-126.897132-45.653783-30.133298-101.390201-41.335431-156.932192-31.538297-10.491958 1.847068-20.481474-5.152347-22.334681-15.635095-1.846044-10.486842 5.152347-20.48659 15.635095-22.332634 65.298192-11.509125 130.950448 1.74269 184.864358 37.329187 54.251601 35.809577 90.195232 89.922009 101.202936 152.381549 1.852184 10.482749-5.15337 20.481474-15.635095 22.334681C789.788747 443.259406 788.662087 443.357644 787.5518 443.357644L787.5518 443.357644 787.5518 443.357644zM942.496731 428.990424c-9.179057 0-17.315364-6.584975-18.961864-15.934924C907.916145 324.452533 856.763115 247.572562 779.50759 196.584284c-77.586053-51.205219-172.255179-70.249971-266.555915-53.623291-10.480702 1.847068-20.476357-5.152347-22.327518-15.640212-1.848091-10.480702 5.15337-20.481474 15.639189-22.327518 104.050798-18.348903 208.636784 2.749624 294.489104 59.414181 86.179778 56.883545 143.274124 142.813636 160.755264 241.955634 1.848091 10.480702-5.158487 20.481474-15.644305 22.327518C944.737772 428.892187 943.612135 428.990424 942.496731 428.990424L942.496731 428.990424 942.496731 428.990424z" p-id="21475"></path></svg>