<?xml version="1.0" standalone="no"?><!DOCTYPE svg PUBLIC "-//W3C//DTD SVG 1.1//EN" "http://www.w3.org/Graphics/SVG/1.1/DTD/svg11.dtd"><svg t="1497430939807" class="icon" style="" viewBox="0 0 1024 1024" version="1.1" xmlns="http://www.w3.org/2000/svg" p-id="14279" xmlns:xlink="http://www.w3.org/1999/xlink" width="200" height="200"><defs><style type="text/css"></style></defs><path d="M821.665247 201.981201c-82.782402-82.818217-192.815447-128.426975-309.826418-128.426975-241.760183 0-438.446797 196.593494-438.446797 438.240089 0 83.126232 23.215748 163.742295 67.14526 233.143944l6.039553 9.686616-48.329728 176.497806 180.828438-47.381124 9.391904 5.618974c67.439972 39.962154 144.612609 61.084217 223.173872 61.084217 241.446028 0 438.043614-196.682521 438.249299-438.452937C949.89063 394.997216 904.358621 284.904819 821.665247 201.981201zM511.641331 916.733974c-72.51864 0-143.747915-19.495006-205.927069-56.339146l-21.484314-12.853749-138.048099 36.170804 36.805254-134.408199-13.938454-22.356171c-40.524972-64.007803-61.944817-138.40728-61.944817-215.154221 0-223.058239 181.564195-404.529313 404.736021-404.529313 108.003829 0 209.567993 42.101887 285.969057 118.534673 76.332503 76.546374 118.370944 178.184215 118.370944 286.177811C915.990542 735.160569 734.515375 916.733974 511.641331 916.733974z" p-id="14280"></path><path d="M756.30361 605.831039c-1.909489-0.929162-3.955078-1.924839-6.054903-2.976798-11.125385-5.649674-75.334779-37.237089-88.409562-41.971927-5.975085-2.164293-12.388145-4.27742-19.321044-4.27742-11.597129 0-21.349237 5.763261-29.01994 17.180288-6.407943 9.612938-24.917506 31.858592-38.84675 48.019667-0.668219 0.7552-1.151219 1.196245-1.447978 1.436722-0.732687-0.12996-2.447748-0.584308-5.586229-2.174526-2.566452-1.306762-5.671163-2.661619-9.601682-4.375657-17.662265-7.707542-50.538023-22.055318-88.701205-56.112995-34.256198-30.635741-58.424644-68.740594-67.225077-83.700307-0.354064-0.601704-0.580215-1.067308-0.724501-1.406023 0.895393-1.167592 2.747577-2.968611 3.502777-3.702322 4.484128-4.331655 9.06547-9.972119 13.497409-15.427364 2.278903-2.805906 4.431939-5.456269 6.466272-7.816013 7.02602-8.068769 10.004865-14.307867 13.453407-21.532409 0.496304-1.039679 1.016143-2.128477 1.575892-3.279696 5.7694-11.652388 5.41022-24.146956-1.043772-37.087687-2.432399-4.943592-21.845541-52.40351-32.275077-77.900208-2.355651-5.760191-4.472871-10.934027-6.185886-15.115256-11.716856-28.553313-27.700899-32.214702-40.318264-32.214702l-1.870604 0.00614c-0.37453 0-0.737804 0-1.083681-0.01842-7.855922-0.418532-16.603143-0.418532-25.061792-0.418532-8.007371 0-28.534893 2.069125-46.172599 21.234627-0.669242 0.726547-1.413186 1.51654-2.220574 2.37407-13.9405 14.813381-46.584991 49.502437-46.584991 114.725928 0 60.872393 38.422078 118.846782 54.94131 140.946103l0.249687 0.332575c0.275269 0.364297 1.238201 1.740644 2.089591 2.956332 63.543222 90.771353 142.048203 159.498644 221.045395 193.518458 31.226189 13.46364 55.669904 21.482267 73.519434 27.337625l0.186242 0.060375c17.196661 5.421476 35.404348 8.169053 54.119595 8.169053 10.520611 0 21.357424-0.839111 33.161261-2.570545 26.320459-3.9121 85.089957-32.568766 98.918917-71.14127 9.124821-25.459858 14.294564-59.751872 6.215562-74.067926C776.419763 615.622032 767.530302 611.295494 756.30361 605.831039zM743.539912 687.535899c-7.506974 20.940938-50.480718 45.950542-72.109318 49.16577-10.133801 1.486864-19.371186 2.209318-28.237111 2.209318-15.454994 0-29.814026-2.153036-43.894719-6.582929-17.23043-5.65172-40.808428-13.392008-70.588685-26.233478-73.335239-31.580253-146.766668-96.17748-206.770274-181.892677-1.353834-1.934049-2.183735-3.119037-2.829442-3.972475l-0.12382-0.165776c-14.502295-19.400862-48.232514-70.0054-48.232514-120.762411 0-51.855018 25.276686-78.713736 37.424354-91.62172 0.89437-0.950651 1.719154-1.827625 2.469238-2.641153 8.846482-9.613962 18.596544-10.360975 21.373797-10.360975 8.385994 0 16.308431 0 23.276123 0.37146 1.098008 0.058328 2.110057 0.065492 2.869351 0.065492l1.86958-0.00614c1.64343 0 2.220574 0.073678 2.384303 0.121773 0.027629 0.014326 2.832512 1.642406 6.743588 11.17348 1.708921 4.168949 3.822049 9.335622 6.17463 15.086603 19.686365 48.128137 30.816866 75.145467 33.284057 80.132038 2.291183 4.593622 1.672082 5.836939 1.016143 7.15291l-0.068562 0.140193c-0.607844 1.249457-1.171686 2.429329-1.708921 3.555989-2.961448 6.202259-4.447289 9.315156-8.508791 13.980409-2.411933 2.796696-4.822842 5.765307-7.154957 8.636704-3.800559 4.679579-7.731078 9.517771-10.787694 12.471033-3.3984 3.302209-9.084912 8.828063-12.017708 16.693194-2.449795 6.570649-3.806699 17.059538 3.6399 29.718859 9.602705 16.322757 36.016285 57.936527 73.823356 91.74861 42.199101 37.658691 79.669504 54.010101 97.677647 61.869093 3.281743 1.431605 6.116301 2.668783 7.822153 3.53757 7.919367 4.010337 14.683421 5.878894 21.284769 5.878894 9.928117 0 18.805298-4.374634 26.383904-13.002129l0.103354-0.118704c7.40669-8.591679 32.284287-37.690414 41.387619-51.349505 0.743944-1.106194 1.313925-1.77339 1.680269-2.15406 1.947352 0.309038 5.65786 1.65264 7.16519 2.198062 9.757225 3.533476 68.813249 32.30373 84.704171 40.371476 2.302439 1.155313 4.465708 2.208295 6.486738 3.191692 3.608178 1.757017 7.942903 3.866051 10.113335 5.258771C752.290203 647.65254 751.459279 665.440671 743.539912 687.535899z" p-id="14281"></path></svg>