<?xml version="1.0" encoding="UTF-8"?>
<svg width="50px" height="50px" viewBox="0 0 50 50" version="1.1" xmlns="http://www.w3.org/2000/svg" xmlns:xlink="http://www.w3.org/1999/xlink">
    <!-- Generator: Sketch 41.2 (35397) - http://www.bohemiancoding.com/sketch -->
    <title>Combined Shape</title>
    <desc>Created with Sketch.</desc>
    <defs></defs>
    <g id="Page-1" stroke="none" stroke-width="1" fill="none" fill-rule="evenodd">
        <g id="全部" fill="#333333">
            <path d="M15.3571429,50 L7.14285713,50 C3.19796607,50 4.83109821e-16,46.8020339 0,42.8571429 L0,34.6428571 C-4.83109821e-16,30.6979661 3.19796607,27.5 7.14285713,27.5 L22.5,27.5 L22.5,42.8571429 C22.5,46.8020339 19.3020339,50 15.3571429,50 L15.3571429,50 Z M0,15.3571429 L0,7.14285713 C-4.83109821e-16,3.19796607 3.19796607,7.24664732e-16 7.14285713,0 L15.3571429,0 C19.3020339,1.99343847e-15 22.5,3.19796607 22.5,7.14285713 L22.5,22.5 L7.14285713,22.5 C3.19796607,22.5 2.23499338e-15,19.3020339 0,15.3571429 L0,15.3571429 Z M20.2380952,20.2380952 L20.2380952,7.14285713 C20.2380952,4.51292977 18.1061178,2.38095242 15.4761905,2.38095239 L7.14285713,2.38095239 C4.51292977,2.38095242 2.38095242,4.51292977 2.38095239,7.14285713 L2.38095239,15.4761905 C2.38095242,18.1061178 4.51292977,20.2380952 7.14285713,20.2380952 L20.2380952,20.2380952 Z M42.8571429,22.5 L27.5,22.5 L27.5,7.14285713 C27.5,3.19796607 30.6979661,7.24664732e-16 34.6428571,0 L42.8571429,0 C46.8020339,2.41554911e-16 50,3.19796607 50,7.14285713 L50,15.3571429 C50,19.3020339 46.8020339,22.5 42.8571429,22.5 L42.8571429,22.5 Z M47.6190476,7.14285713 C47.6190476,4.51292977 45.4870702,2.38095242 42.8571429,2.38095239 L34.5238095,2.38095239 C31.8938822,2.38095242 29.7619048,4.51292977 29.7619048,7.14285713 L29.7619048,20.2380952 L42.8571429,20.2380952 C45.4870702,20.2380952 47.6190476,18.1061178 47.6190476,15.4761905 L47.6190476,7.14285713 Z M42.8571429,50 L34.6428571,50 C30.6979661,50 27.5,46.8020339 27.5,42.8571429 L27.5,27.5 L42.8571429,27.5 C46.8020339,27.5 50,30.6979661 50,34.6428571 L50,42.8571429 C50,46.8020339 46.8020339,50 42.8571429,50 Z M47.6190476,34.5238095 C47.6190476,31.8938822 45.4870702,29.7619048 42.8571429,29.7619048 L29.7619048,29.7619048 L29.7619048,42.8571429 C29.7619048,45.4870702 31.8938822,47.6190476 34.5238095,47.6190476 L42.8571429,47.6190476 C45.4870702,47.6190476 47.6190476,45.4870702 47.6190476,42.8571429 L47.6190476,34.5238095 L47.6190476,34.5238095 Z" id="Combined-Shape"></path>
        </g>
    </g>
</svg>