<?xml version="1.0" standalone="no"?><!DOCTYPE svg PUBLIC "-//W3C//DTD SVG 1.1//EN" "http://www.w3.org/Graphics/SVG/1.1/DTD/svg11.dtd"><svg t="1502783078511" class="icon" style="" viewBox="0 0 1024 1024" version="1.1" xmlns="http://www.w3.org/2000/svg" p-id="2869" xmlns:xlink="http://www.w3.org/1999/xlink" width="200" height="200"><defs><style type="text/css"></style></defs><path d="M107.913 446.425c15.523-152.914 136.391-287.582 288.445-314.601 135.957-27.879 284.418 31.332 362.602 146.164 85.801 119.144 84.797 291.75-2.012 410.031-100.027 146.594-314.601 193.879-467.375 103.91-100.027-54.468-165.996-159.242-181.66-270.91v-74.594m318.48-273.351C304.378 187.156 196.015 280 164.683 398.855c-32.481 110.234 5.031 236.277 90.832 312.305 81.773 75.883 205.949 101.465 311.007 64.242 103.332-34.637 184.965-127.051 204.942-234.262 20.41-98.593-12.215-205.664-83.356-276.66-66.828-68.988-166.425-103.91-261.715-91.406zM715.847 800.55c34.636-29.171 64.527-63.234 92.265-99.019 33.344 43.832 93.852 72.719 106.641 128.484-15.235 35.785-54.324 86.086-98.449 67.403-36.934-28.598-66.684-64.961-100.457-96.868z m0 0" p-id="2870"></path></svg>