<?xml version="1.0" standalone="no"?><!DOCTYPE svg PUBLIC "-//W3C//DTD SVG 1.1//EN" "http://www.w3.org/Graphics/SVG/1.1/DTD/svg11.dtd"><svg t="1496714200540" class="icon" style="" viewBox="0 0 1024 1024" version="1.1" xmlns="http://www.w3.org/2000/svg" p-id="20444" xmlns:xlink="http://www.w3.org/1999/xlink" width="200" height="200"><defs><style type="text/css"></style></defs><path d="M860.393293 809.081139 660.006404 608.694249c40.983413-49.387827 65.721841-112.670106 65.721841-181.471075 0-156.733671-128.234593-284.969287-284.968264-284.969287-156.733671 0-284.968264 128.235616-284.968264 284.969287s128.234593 284.968264 284.968264 284.968264c68.800969 0 132.083248-24.738427 181.471075-65.721841l200.385866 200.38689c10.435677 10.435677 27.340695 10.435677 37.776372 0C870.811574 836.419787 870.811574 819.499419 860.393293 809.081139L860.393293 809.081139zM209.221604 427.223175c0-127.663588 103.873766-231.5394 231.538377-231.5394 127.666658 0 231.537354 103.874789 231.537354 231.5394 0 127.666658-103.870696 231.537354-231.537354 231.537354C313.095369 658.760528 209.221604 554.889833 209.221604 427.223175L209.221604 427.223175zM209.221604 427.223175" p-id="20445"></path></svg>