<?xml version="1.0" encoding="UTF-8"?>
<svg width="51px" height="50px" viewBox="0 0 51 50" version="1.1" xmlns="http://www.w3.org/2000/svg" xmlns:xlink="http://www.w3.org/1999/xlink">
    <!-- Generator: Sketch 41.2 (35397) - http://www.bohemiancoding.com/sketch -->
    <title>Combined Shape</title>
    <desc>Created with Sketch.</desc>
    <defs></defs>
    <g id="Page-1" stroke="none" stroke-width="1" fill="none" fill-rule="evenodd">
        <g id="供应链" fill="#333333">
            <path d="M4.20981109,31.9198822 C4.67459539,31.0634976 5.26866869,30.2591493 5.99203099,29.535787 L12.4420323,23.0915587 C16.4834173,19.0501737 23.0656967,19.0444007 27.1070817,23.0860367 L29.2112324,25.1901874 C29.7458669,25.7305949 30.6196053,25.7305949 31.1600128,25.1901874 C31.7004204,24.6555529 31.7004204,23.7818145 31.1600128,23.241407 L29.0558621,21.1372563 C23.939435,16.0150562 15.6096789,16.0208292 10.4874788,21.1430293 L4.03747754,27.5814845 C-1.08472258,32.7036846 -1.08472258,41.0392138 4.03747754,46.1614139 C6.59544006,48.7254005 9.95861737,50.0014952 13.3215437,50.0014952 L13.3215437,50.0014952 C16.690494,50.0014952 20.0649664,48.7193764 22.628702,46.1496168 L28.8314662,39.9468526 C29.3718738,39.4122181 29.3718738,38.5384797 28.8314662,37.9980722 C28.2968317,37.4576646 27.4230934,37.4576646 26.8826858,37.9980722 L22.6623676,42.2183904 C18.0036258,42.4330101 8.57879938,41.5706191 4.20981109,31.9198822 Z M30.6311514,32.7034336 C27.2682251,32.7034336 23.9108208,31.4273389 21.3526073,28.8691254 L19.2484566,26.7649747 C18.708049,26.2245671 18.708049,25.3508287 19.2484566,24.8161942 C19.7888641,24.2757867 20.6626025,24.2757867 21.197237,24.8161942 L23.3013877,26.920345 C27.3427727,30.96173 33.9250521,30.9559569 37.9664371,26.9145719 L44.4106653,20.4703437 C48.4578234,16.4231856 48.4578234,9.84090621 44.4106653,5.79374814 C40.3635073,1.74659008 33.7754548,1.75236313 29.7227747,5.80529424 L23.5255326,12.0025364 C22.985125,12.5429439 22.1113867,12.5429439 21.5767522,12.0025364 C21.0363446,11.4621289 21.0363446,10.5883905 21.5767522,10.053756 L27.7795164,3.85099179 C32.9074895,-1.27698137 41.2430187,-1.28250342 46.3652188,3.83944569 C51.4874189,8.9613948 51.4874189,17.297175 46.3652188,22.4193751 L39.9209906,28.8578303 C37.357004,31.4215658 33.9940777,32.7034336 30.6311514,32.7034336 Z" id="Combined-Shape"></path>
        </g>
    </g>
</svg>