<?xml version="1.0" encoding="UTF-8"?>
<svg width="47px" height="51px" viewBox="0 0 47 51" version="1.1" xmlns="http://www.w3.org/2000/svg" xmlns:xlink="http://www.w3.org/1999/xlink">
    <!-- Generator: Sketch 41.2 (35397) - http://www.bohemiancoding.com/sketch -->
    <title>Combined Shape</title>
    <desc>Created with Sketch.</desc>
    <defs></defs>
    <g id="Page-1" stroke="none" stroke-width="1" fill="none" fill-rule="evenodd">
        <g id="需求" fill="#333333">
            <path d="M2.67265473,15.1683522 L2.67265473,42.2419812 C2.67265468,42.8636239 2.67265468,43.7984285 2.98598776,44.1117045 C3.29920665,44.7381993 3.60763055,45.046509 3.92084944,45.3598421 C4.54249217,45.6731181 5.16904414,45.6731181 5.79062981,45.6731181 L21.991816,45.6731181 L21.991816,45.6731181 C22.3051491,45.6731181 22.9267347,46.2947609 23.2400678,46.6080368 C23.2400678,47.2345317 22.926906,47.8561174 22.3053203,47.8561174 L5.17401046,47.8561174 C4.54751555,47.8561174 4.23909171,47.5428414 3.92575863,47.5428414 C2.36936841,46.9163465 1.12123077,46.2947608 0.499587986,44.7381993 C0.186312027,44.1166137 0.186312027,42.5601663 0.186312027,41.3119716 L0.186312027,3.93154799 C0.186311971,1.74849155 2.36445916,0.191930074 3.6125968,0.187077951 L34.1453601,0.187077951 C36.0150834,0.187078007 37.571702,1.43521564 37.571702,4.54822446 L37.571702,24.7973953 C37.571702,25.419038 36.9450358,25.7321999 36.3234502,25.7321999 C36.0101741,25.7321999 35.0753696,25.7321999 35.0753696,24.7973953 L35.0753696,15.1683522 L2.67265473,15.1683522 Z M9.53013353,33.5245403 C8.90849075,33.5245403 8.59532898,34.1461831 8.59532898,34.7727351 C8.59532898,35.3943778 8.90860494,36.0207014 9.53013353,36.0207015 L20.4305736,36.0207015 C21.3654353,36.0207015 21.6787113,35.39923 21.6787113,34.7727351 C21.6787113,34.4595732 21.6787113,33.5245403 20.4305736,33.5245403 L9.53013353,33.5245403 Z M30.0925233,24.1757525 C30.0925233,23.8625336 30.0925233,22.927672 28.8443286,22.927672 L9.53013353,22.927672 C8.90849075,22.927672 8.59532898,23.5493147 8.59532898,24.1757525 C8.59532898,24.8023045 8.90860494,25.4238902 9.53013353,25.4238902 L29.1528095,25.4238902 C30.0925233,25.4239472 30.0925233,24.4890285 30.0925233,24.1757525 L30.0925233,24.1757525 Z M45.6672717,47.5427273 L42.241044,44.1165566 C41.9278821,43.8032807 41.6195154,43.8032807 40.9929634,43.8032806 C42.241044,42.2468333 43.1710535,40.3770529 43.1710535,38.1941107 C43.1710535,33.2113215 39.123183,29.4717036 34.4487605,29.4717036 C29.7743381,29.4717036 25.7313768,33.5244833 25.7313768,38.1941107 C25.7313768,43.1766145 29.7792473,46.9163465 34.4537269,46.9163465 C36.6318169,46.9163465 38.1932876,46.2945896 39.7496208,45.046452 C39.7496208,45.3597851 39.7496208,45.6680948 40.3713207,46.2945896 L43.7975484,49.7207603 C44.4191911,50.3425172 45.3539957,50.3425172 45.9755814,49.7207603 C46.2888573,48.7858415 46.2888573,48.1642559 45.6672717,47.5427273 L45.6672717,47.5427273 Z M34.4537269,43.8032806 C31.340718,43.8032806 28.8443286,40.9986386 28.8443286,38.1941107 C28.8443286,35.0810448 31.6491419,32.5847695 34.4537269,32.5847695 C37.258426,32.5847695 40.0630109,35.3892974 40.0630109,38.1941107 C40.0581018,41.3119716 37.8798975,43.8032807 34.4537269,43.8032806 Z" id="Combined-Shape"></path>
        </g>
    </g>
</svg>