<?xml version="1.0" encoding="UTF-8"?>
<svg width="49px" height="50px" viewBox="0 0 49 50" version="1.1" xmlns="http://www.w3.org/2000/svg" xmlns:xlink="http://www.w3.org/1999/xlink">
    <!-- Generator: Sketch 41.2 (35397) - http://www.bohemiancoding.com/sketch -->
    <title>Combined Shape</title>
    <desc>Created with Sketch.</desc>
    <defs></defs>
    <g id="Page-1" stroke="none" stroke-width="1" fill="none" fill-rule="evenodd">
        <g id="人脉" fill="#333333">
            <path d="M39.2575458,46.1974311 C39.1987672,46.3395278 39.1666667,46.4977472 39.1666667,46.6666667 C39.1666667,47.3333333 39.6666667,47.8333333 40.3333333,47.8333333 L44.1666667,47.8333333 L44.1666667,47.8333333 C44.75,47.8333333 45.3333333,47.3333333 45.25,46.5833333 C45.25,42.4166667 43.9166667,38.5833333 41.5,36 C45.8333333,33.5833333 48.5833333,29 48.5833333,23.9166667 C48.5833333,20.75 47.5833333,17.8333333 45.6666667,15.3333333 C45.3333333,14.8333333 44.5833333,14.75 44.0833333,15.1666667 C43.5833333,15.5 43.5,16.25 43.9166667,16.75 C45.5,18.8333333 46.3333333,21.3333333 46.3333333,23.9166667 C46.3333333,28.6666667 43.5,32.9166667 39.0833333,34.6666667 C38.75,34.8333333 38.5,35.1666667 38.4166667,35.5833333 C38.3333333,36 38.5,36.4166667 38.8333333,36.6666667 C38.8932012,36.7137057 38.9525753,36.7617322 39.0114459,36.8107265 L39.2575458,46.1974311 Z M9.64363378,36.9037209 C9.70629832,36.8513751 9.76953547,36.8001269 9.8333333,36.75 C10.1666667,36.5 10.3333333,36.0833333 10.25,35.6666667 C10.25,35.25 9.99999995,34.9166667 9.5833333,34.75 C5.16666665,33 2.3333333,28.75 2.3333333,24 C2.33333335,21.3333333 3.16666665,18.9166667 4.75,16.8333333 C5.16666665,16.3333333 5.0833333,15.6666667 4.5833333,15.25 C4.0833333,14.9166667 3.3333333,15 2.91666665,15.4166667 C1,17.9166667 0,20.8333333 0,24 C0,29.0833333 2.75,33.75 7.0833333,36.0833333 C4.74999995,38.6666667 3.3333333,42.5 3.3333333,46.6666667 C3.33333335,47.3333333 3.83333335,47.8333333 4.5,47.8333333 L8.3333333,47.8333333 L8.3333333,47.8333333 C9,47.8333333 9.5,47.3333333 9.5,46.75 C9.49999999,46.5711165 9.46400075,46.4042327 9.39844194,46.2557883 L9.64363378,36.9037209 Z M29.5756172,34.0429945 C29.5778957,34.0286675 29.5804666,34.0143337 29.5833333,34 C29.6666667,33.5833333 29.9166667,33.25 30.25,33.0833333 C36.3333333,30.6666667 40.25,24.8333333 40.25,18.25 C40.25,9.41666665 33.0833333,2.25 24.25,2.25 C15.4166667,2.25 8.3333333,9.5 8.3333333,18.3333333 C8.3333333,24.9166667 12.25,30.75 18.3333333,33.1666667 C18.7026028,33.3143744 18.9409668,33.5929879 18.9904178,33.9444995 C22.7353308,32.5369962 26.4204416,32.8354261 29.5756172,34.0429945 Z M37,50 L11.6666667,50 C11,50 10.5,49.5 10.5,48.8333333 C10.5,43.1666667 12.5,37.9166667 15.8333333,34.5 C9.8333333,31.4166667 6,25.1666667 6,18.3333333 C6,8.25 14.25,0 24.3333333,0 C34.4166666,0 42.6666667,8.25 42.6666667,18.3333333 C42.6666667,25.25 38.8333333,31.4166667 32.8333333,34.5833333 C36.1666667,38 38.1666667,43.25 38.1666667,48.9166667 C38.0833333,49.5 37.5833333,50 37,50 L37,50 Z" id="Combined-Shape"></path>
        </g>
    </g>
</svg>