<?xml version="1.0" standalone="no"?><!DOCTYPE svg PUBLIC "-//W3C//DTD SVG 1.1//EN" "http://www.w3.org/Graphics/SVG/1.1/DTD/svg11.dtd"><svg t="1496283153440" class="icon" style="" viewBox="0 0 1024 1024" version="1.1" xmlns="http://www.w3.org/2000/svg" p-id="16972" xmlns:xlink="http://www.w3.org/1999/xlink" width="200" height="200"><defs><style type="text/css"></style></defs><path d="M962.529485 383.728568c-6.743588-18.689664-22.750143-32.441876-47.545876-40.961924-68.279083-23.441898-182.00524-59.811224-211.339336-69.180616-19.060101-23.785729-92.993974-115.931383-139.398864-171.121356-22.64372-26.945699-57.0616-34.82925-85.691661-19.672038-9.702989 5.1503-18.35709 12.663414-25.738198 22.378683-44.079938 58.006112-115.186416 155.193595-133.065622 179.696662-28.962635 11.17655-145.078213 56.145741-211.923644 83.437317-20.188808 8.123005-34.112935 24.635073-39.23663 45.367257-4.765537 19.327184-1.035586 39.686884 10.207479 55.856146 41.028439 59.065234 112.49205 157.87261 130.424468 182.614108 1.473561 30.449499 7.419993 152.009066 12.278651 224.162386 2.083451 31.298843 16.60519 47.388287 28.418236 55.404867 15.755846 10.618848 36.090986 13.273305 55.80191 7.221472 68.50421-20.999266 158.644183-60.660568 188.815343-70.616314 30.143531 8.04421 178.73987 39.529295 248.584612 56.571437 20.866237 5.098111 38.864146 3.76986 53.41249-3.955078 0 0 0 0 0.025583 0 13.884218-7.353478 30.635741-23.705911 31.564903-59.835783 1.698688-72.103178 1.88493-195.996906 1.88493-226.870054 16.697287-25.299199 82.48155-125.08895 121.18606-186.862875C969.193255 418.61103 967.281719 396.895449 962.529485 383.728568zM909.807726 422.140413c-44.041052 70.350255-123.681904 190.633758-124.479059 191.826933-2.548032 3.90289-3.928472 8.442276-3.928472 13.08911 0 1.484817 0.052189 150.998039-1.911536 232.816486-0.23843 9.955746-2.494821 17.016559-5.999644 18.872836-1.300622 0.691755-6.424316 2.656503-18.741853-0.343831-79.586616-19.407002-253.217119-57.793264-254.66305-58.190307-4.659113-1.249457-9.572006-1.115404-14.135952 0.398066-1.446955 0.503467-116.89943 48.739051-194.721867 72.604598-4.14132 1.249457-9.928117 1.673106-13.817704-0.981351-4.154623-2.788509-6.769171-9.55768-7.419993-19.006889-5.508457-82.084507-12.450567-228.834802-12.516058-230.296083-0.212848-4.619204-1.778506-9.052167-4.51278-12.821003-0.87595-1.195222-87.379093-120.389928-134.062322-187.605795-3.331885-4.804423-4.499477-11.522428-3.02694-17.494443 0.850367-3.611248 3.066849-8.467859 10.327206-12.317537 0.106424-0.054235 0.212848-0.106424 0.331551-0.159636 75.937506-31.007201 216.264509-85.108377 217.671555-85.639472 4.406356-1.6465 8.149611-4.567016 10.858302-8.308223 0.874927-1.195222 86.48984-118.640074 136.703475-184.687326 3.118014-4.114714 6.437619-7.088442 9.861602-8.92016 11.879562-6.265704 22.286586 4.51278 25.192775 7.963369 52.934606 63.022359 142.344962 174.86461 143.220912 175.980014 3.000334 3.743254 7.060813 6.5553 11.680017 8.016581 1.381463 0.425695 139.371234 44.279483 217.312374 71.039963 9.742898 3.317559 16.193821 7.618515 17.708314 11.734252C918.355403 404.248927 915.780765 412.636968 909.807726 422.140413z" p-id="16973"></path></svg>