<?xml version="1.0" encoding="UTF-8"?>
<svg width="38px" height="38px" viewBox="0 0 38 38" version="1.1" xmlns="http://www.w3.org/2000/svg" xmlns:xlink="http://www.w3.org/1999/xlink">
    <!-- Generator: Sketch 41.2 (35397) - http://www.bohemiancoding.com/sketch -->
    <title>时间</title>
    <desc>Created with Sketch.</desc>
    <defs></defs>
    <g id="Page-1" stroke="none" stroke-width="1" fill="none" fill-rule="evenodd">
        <g id="招商会详情微信分享页面" transform="translate(-23.000000, -1821.000000)" fill="#50ABF1">
            <g id="消息一" transform="translate(0.000000, 148.000000)">
                <g id="招商会信息" transform="translate(0.000000, 1457.000000)">
                    <g id="会议时间" transform="translate(0.000000, 188.000000)">
                        <g id="时间" transform="translate(23.000000, 28.000000)">
                            <path d="M19,37.9814634 C8.53383198,37.9814634 0.044899729,29.466168 0.044899729,19.0263631 C0.044899729,8.58655827 8.53383198,0.044899729 19,0.044899729 C29.466168,0.044899729 37.9551003,8.56019512 37.9551003,19 C37.9551003,29.4398049 29.466168,37.9814634 19,37.9814634 Z M19,1.8375935 C9.53563144,1.8375935 1.8375935,9.56199458 1.8375935,19 C1.8375935,28.4380054 9.56199458,36.1624065 19,36.1624065 C28.4380054,36.1624065 36.1624065,28.4380054 36.1624065,19 C36.1624065,9.56199458 28.4907317,1.8375935 19,1.8375935 Z M25.4589702,26.0389593 C25.6171491,26.0389593 25.0371599,25.9335068 24.8262547,25.8016911 L18.446374,21.9263089 C18.4200108,21.8999458 18.3672846,21.8735827 18.3409214,21.8735827 C18.1563794,21.7681301 17.4445745,21.3199566 17.4445745,21.3199566 C16.6273171,20.8981463 16.6536802,20.5026992 16.6536802,20.2390678 L16.6536802,9.37745257 C16.6536802,8.58655827 17.0491274,7.95384282 17.8400217,7.95384282 C18.630916,7.95384282 19.0263631,8.58655827 19.0263631,9.37745257 L19.0263631,19.5799892 L25.5116965,23.6926396 C25.8544173,23.8771816 26.5662222,24.2199024 26.6980379,24.5626233 C26.8298537,24.9317073 26.8562168,25.2744282 26.6716748,25.5907859 C26.4080434,26.0389593 25.9071436,25.9862331 25.5644228,25.9862331 C25.5116965,25.9862331 25.3007913,26.0389593 25.4589702,26.0389593 Z" id="Shape"></path>
                        </g>
                    </g>
                </g>
            </g>
        </g>
    </g>
</svg>