<?xml version="1.0" standalone="no"?><!DOCTYPE svg PUBLIC "-//W3C//DTD SVG 1.1//EN" "http://www.w3.org/Graphics/SVG/1.1/DTD/svg11.dtd"><svg t="1498456721517" class="icon" style="" viewBox="0 0 1024 1024" version="1.1" xmlns="http://www.w3.org/2000/svg" p-id="1141" xmlns:xlink="http://www.w3.org/1999/xlink" width="200" height="200"><defs><style type="text/css"></style></defs><path d="M512 90.276073c-240.299925 0-435.106726 194.806801-435.106726 435.106725s194.805778 435.106726 435.106726 435.106726 435.106726-194.805778 435.106726-435.106726S752.299925 90.276073 512 90.276073z m0 824.413336c-215.004819 0-389.305587-174.301791-389.305587-389.305587s174.301791-389.305587 389.305587-389.305587 389.305587 174.301791 389.305587 389.305587-174.302815 389.305587-389.305587 389.305587z" p-id="1142"></path><path d="M328.797491 525.382798z m-53.433979 0c0 29.510104 23.921829 53.43398 53.433979 53.43398 29.510104 0 53.43398-23.922852 53.43398-53.43398 0-29.510104-23.923876-53.43398-53.43398-53.433979-29.511127 0.001023-53.43398 23.923876-53.433979 53.433979M512 525.382798z m-53.43398 0c0 29.510104 23.922852 53.43398 53.43398 53.43398 29.510104 0 53.43398-23.922852 53.43398-53.43398 0-29.510104-23.923876-53.43398-53.43398-53.433979-29.511127 0.001023-53.43398 23.923876-53.43398 53.433979M695.201485 525.382798z m-53.432956 0c0 29.510104 23.922852 53.43398 53.43398 53.43398s53.432956-23.922852 53.432956-53.43398c0-29.510104-23.921829-53.43398-53.432956-53.433979-29.511127 0.001023-53.43398 23.923876-53.43398 53.433979" p-id="1143"></path></svg>