<?xml version="1.0" standalone="no"?><!DOCTYPE svg PUBLIC "-//W3C//DTD SVG 1.1//EN" "http://www.w3.org/Graphics/SVG/1.1/DTD/svg11.dtd"><svg t="1496282347654" class="icon" style="" viewBox="0 0 1024 1024" version="1.1" xmlns="http://www.w3.org/2000/svg" p-id="3393" xmlns:xlink="http://www.w3.org/1999/xlink" width="200" height="200"><defs><style type="text/css"></style></defs><path d="M926.316725 335.381443c-22.642696-53.540404-55.057967-101.624539-96.347348-142.908804-41.285289-41.290405-89.367377-73.705676-142.908804-96.353488-55.435567-23.447015-114.321722-35.334763-175.007873-35.334763-93.547583 0-183.228091 28.454052-259.343653 82.289168-36.646642 25.921369-69.155033 57.08616-96.617501 92.622514-27.736715 35.891442-49.79101 75.56093-65.547879 117.900224-18.646686 50.105165-28.099988 102.862739-28.099988 156.797116 0 60.693314 11.888771 119.573329 35.340903 175.014012 22.64372 53.541427 55.057967 101.621469 96.347348 142.908804 41.284265 41.286312 89.3684 73.699536 142.908804 96.348372 55.440683 23.448038 114.323768 35.33988 175.011966 35.33988 60.691267 0 119.573329-11.891841 175.012989-35.33988 53.541427-22.648836 101.619422-55.063083 142.908804-96.348372 41.285289-41.288358 73.699536-89.367377 96.347348-142.908804 23.448038-55.440683 35.340903-114.320699 35.340903-175.014012C961.662745 449.706235 949.76988 390.818033 926.316725 335.381443zM679.39294 126.548184C769.149173 165.825746 842.579579 235.701187 886.42518 322.905294L678.843424 517.358031c0.054235-1.731434 0.089028-3.470031 0.089028-5.217838 0-4.510734-0.182149-8.976442-0.531096-13.395078L679.39294 126.548184zM512.051677 91.64321c47.777143 0 93.705172 8.05035 136.51621 22.853497l-0.799202 300.080449c-14.495132-20.354584-33.392528-37.350676-55.288211-49.618071L352.456842 123.538641C402.21306 102.903671 456.290699 91.64321 512.051677 91.64321zM322.61928 137.298016 528.675286 344.550267c-6.02318-0.652869-12.133342-1.001817-18.328437-1.001817-2.222621 0-4.431939 0.059352-6.631024 0.14224l0-0.107447-375.843994-0.034792C167.25684 253.048273 237.186516 180.815135 322.61928 137.298016zM93.302501 510.393409c0-46.6556 7.602142-92.344175 22.582321-135.984091l297.31036 0.028653c-12.05557 8.53028-22.947641 18.608823-32.386618 29.931706L117.607046 651.048893C101.8819 607.065146 93.302501 559.712675 93.302501 510.393409zM345.211834 547.403325l-0.971118 346.632695c-95.013981-41.721217-171.683151-117.738541-214.258829-212.294081l214.783785-201.294562c-1.963725 10.267854-3.000334 20.86112-3.000334 31.688723 0 12.094456 1.290389 23.889083 3.720741 35.267225L345.211834 547.403325zM510.346849 374.414435c75.943646 0 137.725758 61.782112 137.725758 137.720641 0 75.943646-61.782112 137.725758-137.725758 137.725758-75.937506 0-137.719618-61.782112-137.719618-137.725758C372.626207 436.196547 434.409342 374.414435 510.346849 374.414435zM512.051677 929.142585c-47.952128 0-94.04184-8.108678-136.985908-23.016203l0.818645-292.419979c15.19712 20.066011 34.761712 36.637432 57.281611 48.279586l236.758262 236.261958C621.179097 918.161487 567.87303 929.142585 512.051677 929.142585zM699.919439 884.578624 494.915391 680.009482c5.085832 0.465604 10.227945 0.711198 15.431457 0.711198 24.699542 0 48.176233-5.334495 69.337181-14.921851l320.81468 0.981351C862.2772 761.381767 790.461571 838.933027 699.919439 884.578624zM911.56679 635.955126l-285.993616-0.876973c19.378349-18.171871 34.466999-40.848337 43.581588-66.353221l230.765781-216.173434c19.903306 48.735981 30.879288 102.031814 30.879288 157.841911C930.798806 554.11826 924.054195 596.299965 911.56679 635.955126z" p-id="3394"></path></svg>