<?xml version="1.0" standalone="no"?><!DOCTYPE svg PUBLIC "-//W3C//DTD SVG 1.1//EN" "http://www.w3.org/Graphics/SVG/1.1/DTD/svg11.dtd"><svg t="1496282350559" class="icon" style="" viewBox="0 0 1024 1024" version="1.1" xmlns="http://www.w3.org/2000/svg" p-id="3506" xmlns:xlink="http://www.w3.org/1999/xlink" width="200" height="200"><defs><style type="text/css"></style></defs><path d="M512.976746 793.70801c-115.719558 0-227.727585-30.162974-315.236638-85.005023C112.366695 655.157467 63.459822 585.835635 63.459822 518.373151c0-67.464531 48.997947-136.784316 134.37136-190.329836 87.510076-54.844096 199.518103-85.000929 315.237661-85.000929 115.722628 0 227.730655 30.157857 315.240731 85.000929 85.374436 53.454446 134.372384 122.865305 134.372384 190.329836 0 67.467601-48.997947 136.784316-134.372384 190.329836C740.703307 763.550153 628.790448 793.70801 512.976746 793.70801L512.976746 793.70801zM512.976746 273.290293c-110.151749 0-216.405725 28.582989-299.184033 80.45745-75.165933 47.145763-120.079866 108.667955-120.079866 164.625408s44.913932 117.484761 120.172987 164.624385c82.778308 51.874461 189.032284 80.45745 299.18301 80.45745 110.150726 0 216.404702-28.582989 299.18301-80.45745 75.258031-47.139623 120.171963-108.665909 120.171963-164.624385 0-55.954383-44.913932-117.480668-120.171963-164.625408C729.381447 301.873282 623.127472 273.290293 512.976746 273.290293L512.976746 273.290293zM512.976746 273.290293" p-id="3507"></path><path d="M512.976746 667.964144c-82.405825 0-149.500942-67.094094-149.500942-149.499919 0-82.406848 67.095118-149.501966 149.500942-149.501966 82.404802 0 149.499919 67.094094 149.499919 149.501966C662.476665 600.87005 595.477738 667.964144 512.976746 667.964144L512.976746 667.964144zM512.976746 400.150586c-65.237817 0-118.319779 53.079916-118.319779 118.318756 0 65.236793 53.081962 118.317733 118.319779 118.317733 65.236793 0 118.317733-53.080939 118.317733-118.317733C631.294478 453.135334 578.213539 400.150586 512.976746 400.150586L512.976746 400.150586zM512.976746 400.150586" p-id="3508"></path><path d="M436.233897 537.676799c-8.445346 0-15.405875-6.774287-15.59314-15.219633-0.64673-26.912953 10.67206-52.43114 31.087019-70.064752 6.495948-5.65786 16.426111-4.915963 21.99392 1.579985 5.662977 6.493901 4.92108 16.423041-1.574868 21.989827-13.272281 11.414981-20.697391 28.119431-20.23281 45.660946 0.187265 8.627495-6.588045 15.775288-15.22168 15.957437-0.277316 0.096191-0.36839 0.096191-0.464581 0.096191L436.233897 537.676799zM436.233897 537.676799" p-id="3509"></path></svg>