<?xml version="1.0" standalone="no"?><!DOCTYPE svg PUBLIC "-//W3C//DTD SVG 1.1//EN" "http://www.w3.org/Graphics/SVG/1.1/DTD/svg11.dtd"><svg t="1496282281833" class="icon" style="" viewBox="0 0 1024 1024" version="1.1" xmlns="http://www.w3.org/2000/svg" p-id="1689" xmlns:xlink="http://www.w3.org/1999/xlink" width="200" height="200"><defs><style type="text/css"></style></defs><path d="M512.01535 92.741217c-240.339834 0-435.123099 181.774997-435.123099 406.036644 0 112.178919 48.750307 213.718523 127.548978 287.201117l-23.413246 139.139967 104.246249-79.746252c66.046229 37.669948 143.665027 59.44795 226.741118 59.447951 240.307088 0 435.090353-181.807742 435.090352-406.042783 0.001023-224.261647-194.782242-406.036643-435.090352-406.036644z m0 779.592525c-75.594699 0-149.444661-19.330254-213.580377-55.903218l-15.329127-8.739035-60.608379 46.354748 13.598716-80.820724-13.085017-12.214183c-75.523067-70.416769-117.111255-163.552983-117.111254-262.234493 0-205.974142 182.178179-373.555881 406.115438-373.555881 223.918839 0 406.083715 167.58174 406.083715 373.555881 0 205.981305-182.163853 373.556904-406.083715 373.556905z m0 0" p-id="1690"></path><path d="M323.459926 476.446249c-16.018835 0-29.006637 14.513552-29.006637 32.485879 0 17.935488 12.988826 32.480762 29.006637 32.480762 16.020882 0 29.010731-14.545274 29.010731-32.480762 0-17.972327-12.989849-32.485879-29.010731-32.485879z m0 0M512.01535 476.446249c-16.021905 0-29.010731 14.513552-29.010731 32.485879 0 17.935488 12.988826 32.480762 29.010731 32.480762 16.017812 0 29.006637-14.545274 29.006637-32.480762 0.001023-17.972327-12.988826-32.485879-29.006637-32.485879z m0 0M700.540074 476.446249c-16.021905 0-29.011754 14.513552-29.011754 32.485879 0 17.935488 12.989849 32.480762 29.011754 32.480762 16.017812 0 29.006637-14.545274 29.006637-32.480762 0-17.972327-12.988826-32.485879-29.006637-32.485879z m0 0" p-id="1691"></path></svg>