<?xml version="1.0" standalone="no"?><!DOCTYPE svg PUBLIC "-//W3C//DTD SVG 1.1//EN" "http://www.w3.org/Graphics/SVG/1.1/DTD/svg11.dtd"><svg t="1503286347276" class="icon" style="" viewBox="0 0 1024 1024" version="1.1" xmlns="http://www.w3.org/2000/svg" p-id="2294" xmlns:xlink="http://www.w3.org/1999/xlink" width="200" height="200"><defs><style type="text/css"></style></defs><path d="M103.401 302.275c41.457-75.219 103.766-152.422 196.855-156.891 83.661-14.648 154.903 35.746 212.993 89.118 52.379-45.676 111.214-95.821 185.933-90.11 105.75-6.457 191.645 77.203 223.418 172.031v119.903c-87.379 164.336-234.59 282.5-359.453 416.797-19.363 15.64-49.648 59.578-73.73 24.328C354.374 734.216 190.534 609.099 103.401 428.13V302.275m62.062 156.144C267.49 597.185 387.885 721.306 515.483 836.74c94.332-97.809 197.848-187.422 280.02-296.403 33.757-45.429 83.16-85.644 84.648-147.207 18.121-113.199-90.113-224.164-204.055-203.558-71.992 4.965-114.441 69.508-167.316 109.226-52.129-59.828-119.156-126.851-207.035-109.476-123.125 10.922-196.606 163.097-136.282 269.097z m0 0" p-id="2295"></path></svg>