<?xml version="1.0" standalone="no"?><!DOCTYPE svg PUBLIC "-//W3C//DTD SVG 1.1//EN" "http://www.w3.org/Graphics/SVG/1.1/DTD/svg11.dtd"><svg t="1496282398922" class="icon" style="" viewBox="0 0 1024 1024" version="1.1" xmlns="http://www.w3.org/2000/svg" p-id="10224" xmlns:xlink="http://www.w3.org/1999/xlink" width="200" height="200"><defs><style type="text/css"></style></defs><path d="M631.647007 362.656647l0 0.00921c0.01842-0.194428 0.026606-0.37146 0.034792-0.548492L631.647007 362.656647z" p-id="10225"></path><path d="M836.008418 473.977012c-21.369703-38.869263-54.067406-60.83453-98.629321-62.909795-26.978445-1.254573-54.052057-0.487094-81.081667-0.627287-1.206478-0.008186-2.409886-0.004093-3.672646-0.004093 0.059352-0.6191 0.067538-0.954745 0.130983-1.279133 3.826142-19.290345 6.208399-38.765909 7.806803-58.356083 1.51961-18.59552 2.558265-37.222763 2.882654-55.866379 0.275269-16.064884 1.802042-32.230052-0.515746-48.187489-4.205788-28.919656-19.566638-50.585095-45.704948-63.572898-28.633131-14.230096-57.125045-12.359492-83.975577 4.912893-19.96982 12.851703-32.030507 31.531134-36.570917 54.954613-1.930979 9.953699-1.514493 20.014846-1.482771 30.051433 0.083911 26.758434-4.828982 52.557006-17.328667 76.244498-32.41834 61.427024-83.575464 93.305059-153.204287 94.603635-26.909883 0.500397-53.839209 0.092098-80.757279 0.072655-7.981788-0.004093-15.836687 0.931209-23.37129 3.601015-28.580942 10.129708-46.041616 34.912138-46.052872 65.447595-0.032746 89.027639-0.004093 178.055279-0.016373 267.082918 0 9.134031 1.211595 18.104333 4.89652 26.473955 11.276834 25.615401 30.774911 40.860617 58.896388 42.028209 29.103852 1.206478 58.296731 0.407276 87.448678 0.455371 2.797719 0.004093 5.559623-0.415462 8.094352-1.746784 7.03523-3.701299 9.530051-9.781784 9.525957-17.432021-0.039909-114.498754-0.028653-228.992391-0.008186-343.491145 0.004093-3.097548-1.287319-7.123234 0.543376-9.033747 1.606591-1.679245 5.64865-1.003863 8.606005-1.407046 31.311123-4.27742 60.271712-14.886035 86.461187-32.634258 38.115086-25.822109 64.716954-60.534701 79.574337-104.161315 7.858992-23.072485 10.816347-46.864354 10.505261-71.155597-0.075725-5.791913-0.268106-11.583826 0.571005-17.383926 4.189416-28.941146 33.405831-48.602951 61.758576-41.443901 23.443945 5.915733 38.885636 25.7822 38.845727 50.15326-0.052189 30.16809-0.831948 60.315714-3.461845 90.375334-2.118244 24.227798-4.548596 48.435129-12.391215 71.690786-0.975211 2.882654-1.291412 5.89629-0.635473 8.909927 1.877767 8.622378 8.497535 13.635555 18.059308 13.679557 32.506345 0.163729 65.011666 0.343831 97.518011 0.443092 11.120268 0.035816 22.036899 1.059122 32.506345 5.189186 41.358967 16.316617 62.933331 60.626799 50.42546 103.377462-5.192256 17.748223-11.304464 35.184337-17.524119 52.580542C772.947174 666.410766 749.34257 726.501352 725.886345 786.649244c-3.209088 8.226359-8.918114 14.290471-15.920598 19.323091-10.349719 7.442506-22.233374 9.353019-34.596959 9.353019-81.541131 0.016373-163.085332 0.008186-244.629533 0.01228-1.563612 0-3.13848-0.031722-4.685719 0.1361-12.502755 1.367137-19.310811 14.937201-12.751419 25.558096 3.857864 6.240121 9.821693 8.106632 16.905018 8.102538 82.21242-0.071631 164.428933-0.048095 246.64033-0.048095 20.214391 0 38.838563-5.167696 55.054897-17.535375 10.593266-8.083096 19.48682-17.652032 24.427342-30.371728 8.993838-23.13593 18.119683-46.216601 27.073612-69.368904 19.631106-50.76929 39.09746-101.598956 56.237839-153.284105 4.604878-13.882172 8.874111-27.868721 9.685593-42.578748C850.526063 514.118244 846.588381 493.224378 836.008418 473.977012L836.008418 473.977012zM305.891805 815.425637c-20.774139-0.127913-41.552371-0.048095-62.326511-0.071631-20.594037-0.024559-35.352159-14.530948-35.363416-35.088146-0.060375-89.132016-0.064468-178.264033 0.004093-267.390933 0.011256-20.230764 14.546298-34.884508 34.756595-35.056424 21.217231-0.184195 42.442648 0.019443 63.663972-0.115634 2.918469-0.016373 2.874467 1.334391 2.874467 3.433192-0.035816 55.178717-0.027629 110.357434-0.027629 165.532057 0 55.066153-0.032746 110.129236 0.079818 165.19539C309.561381 814.897611 308.729433 815.44508 305.891805 815.425637L305.891805 815.425637zM305.891805 815.425637" p-id="10226"></path></svg>