<?xml version="1.0" standalone="no"?><!DOCTYPE svg PUBLIC "-//W3C//DTD SVG 1.1//EN" "http://www.w3.org/Graphics/SVG/1.1/DTD/svg11.dtd"><svg t="1496282235791" class="icon" style="" viewBox="0 0 1024 1024" version="1.1" xmlns="http://www.w3.org/2000/svg" p-id="1473" xmlns:xlink="http://www.w3.org/1999/xlink" width="200" height="200"><defs><style type="text/css"></style></defs><path d="M754.605434 212.218356l-49.193399 49.255821a346.522178 346.522178 0 0 0-5.91164 0.578168c-3.936659 0.406253-8.397251 0.880043-10.202363 0.859577l-0.204661-0.080841-0.715291-0.011257a92.269473 92.269473 0 0 0-12.787235 0.665149l-27.53103 3.577479-0.664125 0.035815c-0.981351 0.051165-2.092661 0.10847-3.112898 0.235361l-1.220804 0.152472-0.290619 0.260944-132.35647 16.892738-132.166136-16.877389-0.269129-0.271176-1.358951-0.160659c-1.099031-0.12996-2.183735-0.186242-3.232624-0.240477l-28.089755-3.610224a91.460038 91.460038 0 0 0-12.750395-0.661056l-0.735758 0.01228-0.197498 0.080841h-0.021489c-1.860371 0-6.608511-0.48914-10.42442-0.88209-2.073218-0.213871-4.062526-0.418532-5.616928-0.552586l-49.288566-49.256843-190.905958 190.969402 93.213985 149.383262c2.632967 4.895497 15.144932 27.952632 19.84293 32.635282l213.630519 213.518978c8.227382 8.295943 18.825764 13.054317 29.079292 13.054317 7.554046 0 14.388708-2.691295 19.227923-7.563256l9.179057-9.131985 6.075369 6.083556c5.79089 5.831822 13.737886 9.045003 22.379706 9.045003 7.79964 0 15.661701-2.579755 22.437012-7.317662 6.817266 4.737908 14.706957 7.317663 22.51683 7.317662 8.656147 0 16.597003-3.215228 22.336727-9.0317l6.106069-6.093789 9.122774 9.121752c4.882194 4.882194 11.729136 7.570419 19.280112 7.570419 10.246365 0 20.862143-4.755304 29.120225-13.043061l213.511815-213.526141c4.700045-4.684696 17.242709-27.747971 19.876699-32.639375l93.27743-149.383262-190.966332-190.971449zM581.009723 775.512602a30.706349 30.706349 0 0 0 6.101975-8.854668c6.936993 6.971785 16.036231 11.217483 25.298176 11.879562l-6.885827 6.91141c-3.596921 3.595898-8.305153 5.742794-12.595876 5.742794-1.951445 0-4.730745-0.449231-6.868432-2.572592l-9.046026-9.128914 3.99601-3.977592z m32.393781-17.928324c-4.316306 0-8.717546-1.914606-12.050453-5.225002 0 0-9.422603-9.550517-22.262027-22.532179l-3.480264-3.530406a1741.810413 1741.810413 0 0 1-5.187139-5.265934c-17.876136-18.067494-36.348859-36.569894-48.190559-48.266283a656.405901 656.405901 0 0 0-9.134031-8.989745c-6.858198-6.581905-6.858198-6.581905-8.691963-6.581906l-1.26583 0.004093-1.020236 0.722455-0.257873 0.199544c-3.510964 2.958378-6.520507 5.345752-9.468652 7.514138l-3.672646 2.702551 18.917861 18.901489 48.252981 48.314379 12.641925 12.541641c0.880043 4.52506-0.278339 8.974395-3.132341 11.80793l-16.856923 16.805758-8.870018 8.936533c-2.707668 2.706645-6.024204 3.27458-8.330736 3.27458-3.164063 0-6.525624-1.075495-9.425673-3.001357a29.872355 29.872355 0 0 0-1.312902-0.833995c-0.685615-0.418532-1.279133-0.780783-1.693572-1.207501l-92.260263-92.27459-1.848091 0.184195c-5.732561 0.569982-10.927887 0.780783-16.325827 0.651846l-9.80225-0.240477 43.1211 43.156916 17.112749 17.07898c2.236947 5.094018 1.795902 10.255575-1.171685 13.273305l-11.096733 11.000541-11.815093 11.896958c-2.14485 2.139733-4.909823 2.588965-6.850012 2.588965-4.273327 0-8.972349-2.146896-12.564153-5.738701l-14.500249-14.547321-47.602158-47.538713-151.444201-151.440107c-4.166903-5.310959-60.694337-100.600209-98.8084-165.274185L266.239713 243.49878l40.057322 40.744983 6.881734 0.38374c5.28333 0.333598 10.951423 0.865717 16.432251 1.38044 5.560646 0.521886 10.815323 1.01512 15.759938 1.326204l72.221882 9.251712c-19.498076 3.851725-32.863479 23.938202-30.100552 45.965891l5.89936 46.013986c2.672876 21.036106 19.287275 36.899398 38.644136 36.899399a35.211966 35.211966 0 0 0 4.212951-0.254804c2.562359-0.119727 36.95568-1.711991 60.892859-2.561335l0.176009-0.010233c0.152473-0.01228 0.299829-0.021489 0.445138-0.029676 1.279133 1.36509 2.375094 2.50403 2.994194 3.108804l180.977841 180.961468c3.000334 2.995217 4.652973 7.000438 4.652973 11.279905 0 4.28049-1.653663 8.293897-4.656043 11.30037l-29.563316 29.567409c-3.001357 3.01466-7.008624 4.673439-11.282974 4.67344-4.27128 0-8.266267-1.657756-11.264555-4.67958l-91.601254-91.532692-2.491751 4.667299c-2.718925 5.092995-5.179976 9.494235-7.523347 13.456477l-1.549286 2.619664 119.569236 119.600958c3.101641 3.096525 4.956895 7.013741 5.228072 11.029194 0.25685 3.818979-0.971118 7.291057-3.458775 9.780761l-25.673729 25.724894c-2.222621 2.203178-5.319146 3.416819-8.716523 3.41682z m49.995671-78.643128a313.732377 313.732377 0 0 1 4.378728-4.513804l29.592992-29.541826 0.337691-0.382717c16.638959-21.609157 19.6045-41.583071-16.971534-74.314543L532.567431 422.037059l-1.182942-1.238201c-1.208525-1.26276-2.275833-2.379187-3.232624-3.366677l0.027629-0.028653c3.774977-3.872191 8.052396-8.262174 11.08957-11.102872 0.75213-0.706081 1.710968-1.594311 2.443655-2.199085l9.029654-7.451716-117.030414 5.072529-0.323364 0.027629c-0.586354 0.074701-1.181919 0.112564-1.771343 0.112564-8.143471 0.001023-15.175631-6.933923-16.35755-16.123212l-5.836939-46.02115c-0.677429-5.149277 0.645706-10.323113 3.628644-14.193257 2.520403-3.269463 6.01704-5.337565 9.852392-5.825682l88.010473-11.290137 62.165852-7.945973 102.416577-13.129019c4.985548-0.312108 10.519588-0.830925 15.873526-1.332344 5.461385-0.511653 11.110035-1.040702 16.32378-1.372254l6.906294-0.384763 40.027645-40.742936L917.780817 406.65472c-38.098713 64.666812-94.616938 159.957085-98.803284 165.268044L674.785503 716.166983c-0.926092-4.847401-3.498684-9.437953-7.662516-13.5936l-14.427594-14.563694c3.449565-1.480724 6.569626-4.745071 10.703782-9.068539z m-168.846546 109.135606c-1.662873 0.553609-3.354398 0.843204-4.988617 0.843204-3.299139 0-6.202259-1.140986-8.362459-3.266393l-6.183839-6.229888a25.632797 25.632797 0 0 0 3.970428-6.91448l15.564487 15.567557z" p-id="1474"></path></svg>