<?xml version="1.0" standalone="no"?><!DOCTYPE svg PUBLIC "-//W3C//DTD SVG 1.1//EN" "http://www.w3.org/Graphics/SVG/1.1/DTD/svg11.dtd"><svg t="1502782588166" class="icon" style="" viewBox="0 0 1024 1024" version="1.1" xmlns="http://www.w3.org/2000/svg" p-id="2035" xmlns:xlink="http://www.w3.org/1999/xlink" width="200" height="200"><defs><style type="text/css"></style></defs><path d="M466.103 134.234c105.266-32.355 225.277 49.153 232.379 159.2 13.652 103.082-76.188 203.843-180.086 202.07-96.531 5.051-186.508-79.055-187.871-175.719-5.871-83.558 54.75-164.797 135.578-185.551zM126.134 581.793c35.227-74.273 131.481-55.297 198.383-55.98 40.277 127.386 85.606 253.269 125.609 380.793-73.179-0.411-146.5 4.777-219.543 0.136C169.962 902.508 121.357 843.664 121.9 784c0.683-67.312-5.461-135.578 4.234-202.207z m383.387-65.129c24.711 39.735 68.266 82.469 52.426 133.258-17.883 63.488-25.532 130.254-52.289 190.875-17.203-74-34-148.141-52.43-221.73 17.34-34.27 34.543-68.403 52.293-102.403z m200.703 9.012c45.328 0.683 93.387-7.371 136.395 9.969 55.57 29.765 36.046 100.898 39.597 152.097-1.367 72.5 15.836 169.575-59.804 212.035-78.915 16.93-161.653 3.141-242.071 7.102 40.684-127.523 85.059-253.816 125.883-381.203z m0 0" p-id="2036"></path></svg>