<?xml version="1.0" encoding="UTF-8"?>
<svg width="38px" height="42px" viewBox="0 0 38 42" version="1.1" xmlns="http://www.w3.org/2000/svg" xmlns:xlink="http://www.w3.org/1999/xlink">
    <!-- Generator: Sketch 41.2 (35397) - http://www.bohemiancoding.com/sketch -->
    <title>电话</title>
    <desc>Created with Sketch.</desc>
    <defs></defs>
    <g id="Page-1" stroke="none" stroke-width="1" fill="none" fill-rule="evenodd">
        <g id="招商会详情微信分享页面" transform="translate(-23.000000, -1725.000000)" fill="#50ABF1">
            <g id="消息一" transform="translate(0.000000, 148.000000)">
                <g id="招商会信息" transform="translate(0.000000, 1457.000000)">
                    <g id="联系电话" transform="translate(0.000000, 94.000000)">
                        <g id="电话的副本" transform="translate(0.000000, 26.000000)">
                            <g id="电话" transform="translate(23.000000, 0.000000)">
                                <path d="M26.9786045,28.8178653 C25.8588927,27.7610574 23.667774,25.9892544 21.5968814,25.9878404 C20.9050989,25.9878404 20.2661299,26.1823392 19.7399802,26.5526933 L18.4194266,27.4850723 C16.3514859,27.0560648 14.2307316,25.2971446 12.7225932,22.747399 C11.2115565,20.1976534 10.7103107,17.5278254 11.3610339,15.565818 L12.8486695,14.9137182 C14.7451271,14.0814688 15.3606949,11.6904539 14.5883503,8.1754414 C13.9654294,5.34688279 11.8505791,0 8.28764972,0 C7.94224537,8.09246407e-05 7.59900335,0.0531684925 7.27050565,0.157316708 L4.75112712,0.95238404 C2.59231921,1.63595761 0.96690678,3.40346633 0.508169492,5.56850873 C-0.843138418,11.9206683 0.851135593,19.7357581 5.15565537,27.0102943 C9.46307345,34.2834165 15.5570819,39.6217107 21.8680339,41.6523217 C22.5099548,41.8568229 23.1753305,41.9626608 23.8495085,41.9626608 C25.4177599,41.9626608 26.9243955,41.3992219 28.0866158,40.3753541 L30.0505395,38.6450274 C30.7481723,38.0315237 31.7638672,36.6087082 30.7247175,33.9717157 C30.0974492,32.3786484 28.6640763,30.4037581 26.9786045,28.8178653 L26.9786045,28.8178653 Z M28.6186158,37.0962643 L26.6546921,38.826591 C25.8852458,39.504404 24.8857062,39.8776384 23.8495085,39.8776384 C23.4042662,39.8780199 22.9618617,39.8084927 22.5392599,39.6717232 C16.7149548,37.7984289 11.0532768,32.8033616 7.00525706,25.9663691 C2.96018927,19.1308953 1.35238136,11.8491845 2.6010678,5.99180798 C2.90592655,4.55893766 3.98023164,3.38770324 5.40920339,2.93586284 L7.92713277,2.13786284 C8.04730508,2.10214713 8.16602825,2.08355611 8.28764972,2.08355611 C9.94966667,2.08355611 11.8080706,5.45842893 12.5013023,8.61303741 C13.0098475,10.9225137 12.8003107,12.6485461 11.9766017,13.0132444 L9.71517232,14.0028105 L9.6580113,14.1186509 C8.40197175,16.6955237 8.86655932,20.4021546 10.8715424,23.7899102 C12.8779746,27.1804938 15.9352034,29.4241945 18.8518107,29.6501147 L18.9836836,29.6601696 L20.991565,28.24301 C21.1527966,28.1285835 21.3491836,28.0728105 21.5968814,28.0728105 C23.5828107,28.0742244 27.5824718,31.7994464 28.7300395,34.7167182 C29.0363475,35.4889526 29.2649915,36.5299975 28.6186158,37.0962643 Z M35.8821977,10.9596958 C33.5328531,6.44228678 29.5214379,3.08883292 24.5837994,1.51582294 C24.4770021,1.48103401 24.3651791,1.46317648 24.2525876,1.46293017 C23.7902838,1.46229091 23.3804416,1.75296082 23.2383955,2.18221945 C23.056661,2.72706733 23.3629689,3.31621945 23.9228249,3.49495511 C28.316709,4.89499002 31.8884407,7.88086534 33.9769379,11.9006633 C36.0712853,15.9218753 36.4318023,20.4965237 34.9969802,24.7837706 C34.8137966,25.3300324 35.1215537,25.9191845 35.6829124,26.0965062 C35.7891251,26.1315639 35.9004961,26.149448 36.0126215,26.1494514 C36.4757599,26.1494514 36.8861384,25.8605835 37.0297655,25.4301097 C38.6404718,20.6152444 38.231596,15.4771571 35.8821977,10.9596958 L35.8821977,10.9596958 Z" id="Shape"></path>
                                <path d="M22.5832712,7.50045636 C22.4762486,7.46756858 22.3648785,7.44897756 22.2505565,7.44897756 C21.7874181,7.44897756 21.3770395,7.73784539 21.2363644,8.1683192 C21.0531271,8.71316708 21.3609379,9.30373317 21.9193446,9.48105486 C24.6717684,10.3562469 26.9082938,12.2295935 28.2214407,14.7549875 C29.5346412,17.2804339 29.7662373,20.1476409 28.8634153,22.8303516 C28.6816808,23.3766135 28.9894379,23.9657656 29.5492938,24.1459676 C29.6569731,24.1789459 29.7691494,24.1958255 29.8820085,24.1960324 C30.3451469,24.1960324 30.7540226,23.9071646 30.8962006,23.4781571 C31.9705056,20.2648953 31.697904,16.8328354 30.1267542,13.812606 C28.5527062,10.7909626 25.8735452,8.55014214 22.5832712,7.50045636 Z M19.9158107,15.4642743 C22.2227006,16.2007406 23.4831412,18.6275237 22.7297966,20.8769327 C22.5480621,21.4217805 22.8558729,22.0109327 23.4157288,22.1911347 C23.5226977,22.2240224 23.6340678,22.2426135 23.7454915,22.2426135 C24.2084544,22.2432127 24.6191302,21.9527969 24.7626356,21.5233242 C25.8823475,18.1827531 24.0034407,14.5762519 20.5797373,13.4837282 C20.4724799,13.4487791 20.3601564,13.4309021 20.2470763,13.430783 C19.7839379,13.430783 19.3765113,13.7196509 19.2313814,14.1486584 C19.0496469,14.6978005 19.3559548,15.2869526 19.9158107,15.4642743 L19.9158107,15.4642743 Z" id="Shape"></path>
                            </g>
                        </g>
                    </g>
                </g>
            </g>
        </g>
    </g>
</svg>