<?xml version="1.0" standalone="no"?><!DOCTYPE svg PUBLIC "-//W3C//DTD SVG 1.1//EN" "http://www.w3.org/Graphics/SVG/1.1/DTD/svg11.dtd"><svg t="1504855730668" class="icon" style="" viewBox="0 0 1024 1024" version="1.1" xmlns="http://www.w3.org/2000/svg" p-id="4413" xmlns:xlink="http://www.w3.org/1999/xlink" width="200" height="200"><defs><style type="text/css"></style></defs><path d="M71.680005 737.28l0-261.12 181.76 0 181.76 0 0 261.12 0 261.12-181.76 0-181.76 0 0-261.12zM593.92 737.28l0-261.12 181.76 0 181.76 0 0 261.12 0 261.12-181.76 0-181.76 0 0-261.12zM15.360003 343.04l0-76.8 209.920002 0 209.92 0 0 76.8 0 76.8-209.92 0-209.920002 0 0-76.8zM593.92 343.04l0-76.8 209.92 0 209.92 0 0 76.8 0 76.8-209.92 0-209.92 0 0-76.8zM335.004129 256.083799C293.353866 250.212234 222.056515 232.957926 198.590607 223.071063 175.074683 213.163126 145.236393 187.44002 135.565092 168.737782 97.146209 94.443858 136.863611 15.815515 219.198848 3.168433c47.306906-7.266565 85.272724 14.30142 165.29579 93.90282 79.560924 79.141693 104.97366 131.258004 73.92383 151.602637-15.219215 9.972009-78.351642 13.76254-123.414339 7.40991zM374.875064 184.328407C372.942198 167.217393 333.670707 127.896724 287.571067 96.915077 256.687365 76.159427 246.008489 71.68 227.411067 71.68c-57.397151 0-64.739021 65.803192-10.202092 91.438577 40.554491 19.062856 106.167137 36.324552 133.51103 35.124726 24.024776-1.054182 25.511091-1.910395 24.155059-13.914895zM590.111539 256.466565C553.255373 246.967931 548.572672 224.258949 574.17897 179.2c21.106483-37.140721 126.482944-141.199487 163.212595-161.171639 48.560947-26.405535 107.382272-17.764941 144.202701 21.182735 18.51008 19.579458 24.667392 37.770884 24.533299 72.482216-0.28928 74.819886-44.399514 110.771676-167.332454 136.382623-45.81591 9.54495-126.530662 14.099907-148.683571 8.39063zm154.296832-69.570268C808.59689 168.295199 834.020608 155.078543 843.383962 135.443333 859.18505 102.308163 839.166822 71.68 801.708954 71.68c-18.575565 0-29.350502 4.507602-60.37207 25.256084C701.660314 123.473403 650.24 173.588234 650.24 185.720182c0 3.923231 1.536 8.669153 3.41335 10.546483 7.167027 7.167063 48.36695 2.913213 90.755021-9.370368z" p-id="4414"></path></svg>