<?xml version="1.0" standalone="no"?><!DOCTYPE svg PUBLIC "-//W3C//DTD SVG 1.1//EN" "http://www.w3.org/Graphics/SVG/1.1/DTD/svg11.dtd"><svg t="1496282678897" class="icon" style="" viewBox="0 0 1024 1024" version="1.1" xmlns="http://www.w3.org/2000/svg" p-id="16858" xmlns:xlink="http://www.w3.org/1999/xlink" width="200" height="200"><defs><style type="text/css"></style></defs><path d="M870.363366 175.509293 543.299355 69.678966c-17.83418-5.712095-37.20946-5.666046-55.045687 0l-327.10392 105.830327c-27.767414 9.008164-46.435589 34.618449-46.435589 63.830771l0 232.259808c0 134.210701 64.533782 261.782192 172.688038 341.337085L475.953528 951.538665c11.643178 8.570189 25.39232 13.095249 39.800471 13.095249 14.411221 0 28.16241-4.52506 39.758516-13.047154l188.594309-138.643664c108.154255-79.516008 172.694177-207.131501 172.694177-341.342202l0-232.259808C916.799978 210.127741 898.125663 184.517457 870.363366 175.509293L870.363366 175.509293zM872.253412 471.600895c0 120.106472-57.768705 234.282884-154.50491 305.408805L529.110191 915.697365c-7.820106 5.712095-18.847254 5.747911-26.752294-0.046049L313.806567 777.009699c-96.77816-71.167876-154.547889-185.346335-154.547889-305.408805l0-232.259808c0-9.79611 6.2831-18.406209 15.59621-21.392216l327.106989-105.830327c4.483104-1.451048 9.135054-2.199085 13.839193-2.199085 4.65502 0 9.311063 0.747014 13.793144 2.199085l327.064011 105.830327c9.31311 2.986007 15.595186 11.596106 15.595186 21.392216L872.253412 471.600895 872.253412 471.600895zM872.253412 471.600895" p-id="16859"></path><path d="M716.295408 318.104965 315.256592 318.104965c-12.301164 0-22.274306 9.974166-22.274306 22.273283 0 12.300141 9.973142 22.274306 22.274306 22.274306l178.225147 0 0 332.419995c0 12.305257 9.971096 22.277376 22.272259 22.277376 12.300141 0 22.274306-9.971096 22.274306-22.277376L538.028305 362.65153l178.268126 0c12.301164 0 22.274306-9.968026 22.274306-22.268166C738.569714 328.07913 728.600665 318.104965 716.295408 318.104965L716.295408 318.104965zM716.295408 318.104965" p-id="16860"></path></svg>