<?xml version="1.0" standalone="no"?><!DOCTYPE svg PUBLIC "-//W3C//DTD SVG 1.1//EN" "http://www.w3.org/Graphics/SVG/1.1/DTD/svg11.dtd"><svg t="1496282353315" class="icon" style="" viewBox="0 0 1024 1024" version="1.1" xmlns="http://www.w3.org/2000/svg" p-id="3621" xmlns:xlink="http://www.w3.org/1999/xlink" width="200" height="200"><defs><style type="text/css"></style></defs><path d="M932.965146 413.591713c-12.951987 0-23.452131 10.480702-23.527856 23.406083l0 417.447531c0 25.995047-21.074991 47.048549-47.045479 47.048549L156.542824 901.493875c-25.970488 0-47.046502-21.052478-47.046502-47.048549L109.496321 173.420725c0-26.00528 21.076014-47.049572 47.046502-47.049572l454.617082 0c12.977569-0.029676 23.502273-10.555403 23.502273-23.521716 0-13.002129-10.529821-23.527856-23.502273-23.527856l-459.32122 0c-49.372477 0-89.391936 40.018436-89.391936 89.396029l0 690.436972c0 49.371454 40.019459 89.387843 89.391936 89.387843l715.25624 0c49.376571 0 89.397053-40.015366 89.397053-89.387843L956.491978 436.997795C956.412161 424.072415 945.917132 413.591713 932.965146 413.591713L932.965146 413.591713 932.965146 413.591713 932.965146 413.591713zM495.616356 715.037253l447.582875-447.536826c26.622334-26.604938 24.174586-72.418356-5.479805-102.027721l-42.275849-42.321898c-29.630854-29.659507-75.42176-32.136931-102.049211-5.535063L345.812515 565.249785 495.616356 715.037253 495.616356 715.037253zM826.739822 151.043065c10.108219-10.090822 27.473725-9.171893 38.731116 2.054799l42.291199 42.296315c11.227716 11.30344 12.175297 28.643364 2.067079 38.708604l-49.668213 49.672306-82.441641-83.721797 49.016367-49.009204L826.739822 151.044088zM825.019645 318.9144 492.246609 651.733485l-83.113953-83.09144 333.449441-333.448418 82.437547 83.71668L825.019645 318.9144zM345.596598 566.091966l-46.007847 168.599929c-2.009773 7.362688 0.091074 15.178701 5.426593 20.606317 5.41022 5.333472 13.242606 7.424086 20.594037 5.437849l168.599929-45.986357-34.508955-34.56933L350.225011 710.095707l29.855982-109.539812L345.596598 566.091966 345.596598 566.091966zM345.596598 566.091966" p-id="3622"></path></svg>