<?xml version="1.0" standalone="no"?><!DOCTYPE svg PUBLIC "-//W3C//DTD SVG 1.1//EN" "http://www.w3.org/Graphics/SVG/1.1/DTD/svg11.dtd"><svg t="1496632434059" class="icon" style="" viewBox="0 0 1024 1024" version="1.1" xmlns="http://www.w3.org/2000/svg" p-id="7322" xmlns:xlink="http://www.w3.org/1999/xlink" width="200" height="200"><defs><style type="text/css"></style></defs><path d="M283.535635 246.749824h457.778074v32.698726H283.535635v-32.698726z m436.520935 330.253656L530.406209 380.814192v374.396015H496.072239V379.178949L301.516148 578.6377c-24.52251 24.52251-50.681286-3.267417-24.52251-29.430287l209.269188-209.269187s13.078877-14.71412 24.52251-14.71412c9.810437 0 21.255093 14.71412 21.255093 14.71412l209.269187 209.269187c24.523533 24.52251 3.26844 52.316529-21.25407 27.791973l0.001024 0.004094z" p-id="7323"></path><path d="M509.151116 936.086741c-58.733683 0-115.716488-11.506055-169.367409-34.19787-51.814086-21.915126-98.344842-53.286624-138.299833-93.241614-39.954991-39.954991-71.326489-86.48677-93.241614-138.299833-22.691815-53.649897-34.19787-110.633726-34.19787-169.366385 0-58.733683 11.506055-115.716488 34.19787-169.367409 21.915126-51.814086 53.286624-98.343819 93.241614-138.299833 39.954991-39.954991 86.485747-71.326489 138.299833-93.241614 53.650921-22.691815 110.633726-34.198893 169.367409-34.198893s115.716488 11.506055 169.367408 34.198893c51.814086 21.915126 98.344842 53.286624 138.299833 93.241614 39.954991 39.954991 71.326489 86.485747 93.241614 138.299833 22.691815 53.650921 34.19787 110.633726 34.19787 169.367409 0 58.732659-11.506055 115.716488-34.19787 169.366385-21.915126 51.814086-53.286624 98.344842-93.241614 138.299833-39.954991 39.954991-86.485747 71.326489-138.299833 93.241614-53.650921 22.691815-110.63475 34.19787-169.367408 34.19787z m0-844.009649c-225.469148 0-408.901901 183.432753-408.901901 408.902924 0 225.469148 183.432753 408.901901 408.901901 408.9019S918.053016 726.449163 918.053016 500.980016c0-225.470171-183.432753-408.902924-408.9019-408.902924z" p-id="7324"></path></svg>