<?xml version="1.0" encoding="UTF-8"?>
<svg width="38px" height="26px" viewBox="0 0 38 26" version="1.1" xmlns="http://www.w3.org/2000/svg" xmlns:xlink="http://www.w3.org/1999/xlink">
    <!-- Generator: Sketch 41.2 (35397) - http://www.bohemiancoding.com/sketch -->
    <title>群</title>
    <desc>Created with Sketch.</desc>
    <defs></defs>
    <g id="Page-1" stroke="none" stroke-width="1" fill="none" fill-rule="evenodd">
        <g id="招商会详情微信分享页面" transform="translate(-23.000000, -1921.000000)" fill="#50ABF1">
            <g id="消息一" transform="translate(0.000000, 148.000000)">
                <g id="招商会信息" transform="translate(0.000000, 1457.000000)">
                    <g id="群" transform="translate(0.000000, 282.000000)">
                        <g transform="translate(23.000000, 34.000000)" id="Group">
                            <g>
                                <path d="M17.2150273,14.7336896 C19.3143617,13.2682804 20.6895559,10.8523054 20.6895559,8.11456437 C20.6895559,3.64121219 17.027405,0.0146316153 12.5102668,0.0146316153 C7.99312864,0.0146316153 4.33097775,3.64121219 4.33097775,8.11456437 C4.33097775,11.0186689 5.87851375,13.5576968 8.1970619,14.9875169 C3.69847539,16.7716748 0.432226635,20.9500636 0.0156219645,25.9342211 L2.20435364,25.9342211 C2.75189505,20.4770217 7.39988036,16.2144084 13.0556125,16.2144084 C18.7113447,16.2144084 23.3592852,20.4770661 23.9068714,25.9342211 L26.0977988,25.9342211 C25.6592817,20.6940618 22.0713373,16.347224 17.2150273,14.7336896 Z M12.5102669,14.0543908 C9.19710141,14.0543908 6.51213651,11.3954605 6.51213651,8.11456433 C6.51213651,4.8335351 9.1971462,2.17464914 12.5102669,2.17464914 C15.8234323,2.17464914 18.5083972,4.83357945 18.5083972,8.11456433 C18.508442,11.3955492 15.8234771,14.0543908 12.5102669,14.0543908 Z" id="Shape"></path>
                                <path d="M29.0771697,14.7336896 C31.1765041,13.2682804 32.5516984,10.8523054 32.5516984,8.11456437 C32.5516984,3.64121219 28.8895475,0.0146316153 24.3724093,0.0146316153 C23.0113304,0.0146316153 21.7281325,0.344340931 20.5990384,0.926812585 C21.359296,1.31904684 22.0495145,1.82599155 22.6463028,2.42466024 C23.1929928,2.2622906 23.7723498,2.17464918 24.3724541,2.17464918 C27.6856196,2.17464918 30.3705845,4.83357949 30.3705845,8.11456437 C30.3706292,11.3955492 27.6856196,14.0543908 24.3724541,14.0543908 C23.7703333,14.0543908 23.1891839,13.9661725 22.6408807,13.8028266 C22.2996475,14.1443398 21.9281224,14.4561214 21.5304726,14.7336896 C22.6243456,15.0970799 23.6535567,15.5997201 24.5972243,16.2194228 C24.7037393,16.2164053 24.8104783,16.2144084 24.9177101,16.2144084 C30.5734423,16.2144084 35.2213828,20.4770661 35.768969,25.9342211 L37.9598516,25.9342211 C37.5214242,20.6940618 33.9334798,16.347224 29.0771697,14.7336896 Z" id="Shape"></path>
                            </g>
                        </g>
                    </g>
                </g>
            </g>
        </g>
    </g>
</svg>