<?xml version="1.0" standalone="no"?><!DOCTYPE svg PUBLIC "-//W3C//DTD SVG 1.1//EN" "http://www.w3.org/Graphics/SVG/1.1/DTD/svg11.dtd"><svg t="1502782834262" class="icon" style="" viewBox="0 0 1024 1024" version="1.1" xmlns="http://www.w3.org/2000/svg" p-id="2500" xmlns:xlink="http://www.w3.org/1999/xlink" width="200" height="200"><defs><style type="text/css"></style></defs><path d="M204.868 129.582c25.395-7.097 52.156-5.871 78.367-6.414 163.977 1.364 327.953-0.683 491.93 0.954 64.582-1.774 122.746 56.253 121.652 120.695 2.457 178.176 0.957 356.488 0.274 534.801 1.64 71-66.492 128.48-135.715 123.293a33055.05 33055.05 0 0 1-519.918-1.641c-64.852 1.504-123.699-57.48-121.652-122.332-1.364-173.125-0.137-346.387-0.543-519.512-4.918-56.386 31.402-112.777 85.605-129.844m54.75 227.875c-25.262 6.145-14.883 45.329 9.965 39.188 29.219-3.414 17.066-50.246-9.965-39.188m90.793 41.645c141.176 0.547 282.762 4.504 423.938-2.32 1.089-18.707-5.325-37.684-27.446-34.817-131.48-0.82-263.097-0.957-394.582 0-30.172-8.465-35.906 44.371-1.91 37.137m-107.18 117.691c19.934 3.414 58.028 7.508 40.004-25.121-11.058-28.402-43.277 3.41-40.004 25.121m81.785-33.722c3.004 14.062 4.504 37.543 25.942 33.039a19591.017 19591.017 0 0 0 420.387-0.41c0-8.602 0.136-26.078 0.136-34.68-148.687-2.594-298.054-6.824-446.465 2.051m-74 124.926c-1.503 8.191-4.371 24.714-5.871 32.906 19.934 7.644 58.164 2.183 37.274-26.762-6.828-8.738-17.34-10.785-31.403-6.144m86.836 9.148c-19.664 8.191-9.421 42.461 13.243 35.227 132.164 1.91 264.601 1.363 396.765 0.273 23.758 8.465 37.821-36.457 12.563-35.637-140.633-3.14-281.942-3.414-422.571 0.137z m0 0" p-id="2501"></path></svg>