<?xml version="1.0" standalone="no"?><!DOCTYPE svg PUBLIC "-//W3C//DTD SVG 1.1//EN" "http://www.w3.org/Graphics/SVG/1.1/DTD/svg11.dtd"><svg t="1502782811009" class="icon" style="" viewBox="0 0 1024 1024" version="1.1" xmlns="http://www.w3.org/2000/svg" p-id="2375" xmlns:xlink="http://www.w3.org/1999/xlink" width="200" height="200"><defs><style type="text/css"></style></defs><path d="M245.374 358.392c-0.137 9.832-0.274 29.219-0.41 39.051 9.691-0.547 29.214-1.777 39.047-2.324-0.411-8.875-1.364-26.621-1.774-35.496-9.148-0.274-27.719-0.821-36.863-1.231M321.284 356.209c-1.363 13.925-1.094 27.988-0.957 42.05 146.91-2.32 293.957 0.957 440.867-1.91 0-9.558-0.137-28.672-0.137-38.23-146.5-2.731-293.136 0.82-439.773-1.91M242.096 524.552c29.762 6.555 62.258-22.527 28.946-44.097-30.86-7.239-25.399 24.437-28.946 44.097M315.413 482.912c-8.465 32.902 30.039 30.855 51.609 30.582 133.121-2.047 266.516 3.004 399.496-3.004l-6.55-31.266c-88.883-12.015-179.68-1.5-269.383-4.914-58.164 3.957-119.328-9.969-175.172 8.602M246.19 602.65c0 6.555-0.136 19.387-0.273 25.941-13.106 28.672 43.554 24.715 37.547 1.368 12.289-25.125-25.121-18.844-37.274-27.309M340.534 648.525c141.449 1.504 283.309 3.551 424.621-1.363 9.422-46.422-40.141-35.637-69.769-37.547-118.375 1.91-236.887-1.367-355.258 1.363-32.223-6.687-34 46.422 0.406 37.547z" p-id="2376"></path><path d="M195.401 131.884c24.848-8.601 51.61-7.101 77.414-7.918 163.567 1.09 327.133-0.136 490.699 0.543 74.411-5.324 142.954 61.715 137.219 136.399-1.367 104.449 1.637 209.031-0.547 313.48 0.41 78.235 8.602 157.149-4.777 234.7-15.293 56.664-73.594 96.804-131.758 93.39-155.238 0.684-310.34 2.731-465.578 1.5-39.73-0.269-83.559 4.098-118.785-18.43-40.957-23.894-59.254-73.32-57.613-118.921 0-168.481-0.411-336.965 0.132-505.309-2.593-52.566 23.075-108.543 73.594-129.434m12.563 39.457c-34.41 15.567-48.336 55.024-46.696 90.524-0.82 158.789 0.41 317.711-0.683 476.5 1.367 33.996-3.141 74.547 24.711 99.941 24.441 30.176 66.765 23.485 101.035 25.395 158.926-1.363 317.988 0.683 476.91-1.09 52.703 3.141 102.402-43.418 97.078-97.348 0.547-168.211 0.41-336.418 0-504.629 4.504-53.519-44.648-99.531-97.211-96.254-159.336-2.187-318.672 0.543-478.004-1.093-25.804 0.957-52.703-1.231-77.14 8.054z m0 0" p-id="2377"></path><path d="M245.374 358.392c9.144 0.41 27.715 0.957 36.863 1.231 0.41 8.875 1.363 26.621 1.774 35.496-9.833 0.547-29.356 1.777-39.047 2.324 0.136-9.832 0.273-29.219 0.41-39.051z m75.91-2.183c146.637 2.73 293.273-0.821 439.773 1.91 0 9.558 0.137 28.672 0.137 38.23-146.91 2.867-293.957-0.41-440.867 1.91-0.137-14.062-0.406-28.125 0.957-42.05z m-79.188 168.343c3.547-19.66-1.914-51.336 28.946-44.097 33.312 21.57 0.816 50.652-28.946 44.097z m73.317-41.64c55.844-18.571 117.008-4.645 175.172-8.602 89.703 3.414 180.5-7.101 269.383 4.914l6.55 31.266c-132.98 6.008-266.375 0.957-399.496 3.004-21.57 0.273-60.074 2.32-51.609-30.582zM246.19 602.65c12.153 8.465 49.563 2.184 37.274 27.309 6.007 23.347-50.653 27.304-37.547-1.368 0.137-6.554 0.273-19.386 0.273-25.941z m94.344 45.875c-34.406 8.875-32.629-44.234-0.406-37.547 118.371-2.73 236.883 0.547 355.258-1.363 29.628 1.91 79.191-8.875 69.769 37.547-141.312 4.914-283.172 2.867-424.621 1.363z m0 0" p-id="2378"></path></svg>