<?xml version="1.0" standalone="no"?><!DOCTYPE svg PUBLIC "-//W3C//DTD SVG 1.1//EN" "http://www.w3.org/Graphics/SVG/1.1/DTD/svg11.dtd"><svg t="1496282402011" class="icon" style="" viewBox="0 0 1024 1024" version="1.1" xmlns="http://www.w3.org/2000/svg" p-id="10338" xmlns:xlink="http://www.w3.org/1999/xlink" width="200" height="200"><defs><style type="text/css"></style></defs><path d="M924.861072 873.129874 99.137905 873.129874c-12.287861 0-22.24463 9.957793-22.24463 22.245653 0 12.287861 9.956769 22.245653 22.24463 22.245653l825.722144 0c12.287861 0 22.245653-9.957793 22.245653-22.245653C947.106726 883.087667 937.148933 873.129874 924.861072 873.129874L924.861072 873.129874zM131.733277 808.928666c2.036379 0 4.093225-0.275269 6.112208-0.853437l136.89074-39.099507c3.6399-1.041726 6.949272-2.989077 9.618055-5.668093l430.248068-430.238858c8.694009-8.685823 8.694009-22.771633 0-31.455409-8.694009-8.694009-22.769586-8.694009-31.455409 0L310.99708 673.745824l-72.272024-72.28021c-2.562359-2.562359-5.613858-4.27128-8.844435-5.330402l364.106672-364.106672c8.694009-8.685823 8.694009-22.771633 0-31.455409-8.694009-8.694009-22.769586-8.694009-31.455409 0L135.559419 627.546619c-3.443425 3.435239-5.659907 7.91118-6.309706 12.724813L109.692285 783.675516c-1.01512 7.448646 1.797949 14.895245 7.474228 19.825534C121.259738 807.04169 126.4479 808.928666 131.733277 808.928666L131.733277 808.928666zM172.317601 653.699256l29.622668-29.613458c1.049912 3.221368 2.76702 6.272867 5.321192 8.835226l72.28021 72.28942-22.564925 22.564925-98.592482 28.154223L172.317601 653.699256 172.317601 653.699256zM725.913974 287.510156c4.27128 3.949962 9.689686 5.907547 15.08251 5.907547 5.988388 0 11.958356-2.402723 16.34527-7.144724l78.510098-84.942601c4.004197-4.333702 6.121418-10.082636 5.889127-15.972786-0.231267-5.891174-2.793626-11.461029-7.135514-15.465227L726.767412 70.267367c-9.023514-8.337899-23.109324-7.776104-31.428803 1.245364l-78.482469 84.943624c-8.346085 9.022491-7.786337 23.099091 1.245364 31.43699L725.913974 287.510156 725.913974 287.510156zM712.923102 118.042463l75.153654 69.424162-48.317449 52.267411L664.631236 170.301687 712.923102 118.042463 712.923102 118.042463z" p-id="10339"></path></svg>