<?xml version="1.0" standalone="no"?><!DOCTYPE svg PUBLIC "-//W3C//DTD SVG 1.1//EN" "http://www.w3.org/Graphics/SVG/1.1/DTD/svg11.dtd"><svg t="1502698817487" class="icon" style="" viewBox="0 0 1024 1024" version="1.1" xmlns="http://www.w3.org/2000/svg" p-id="1968" xmlns:xlink="http://www.w3.org/1999/xlink" width="200" height="200"><defs><style type="text/css"></style></defs><path d="M467.187 102.477h99.328c181.929 27.988 333.484 179.711 354.644 363.691v48.641c-66.219-32.941-136.531-57.176-200.703-94.211 55.125-25.43 108.887 10.582 160.086 27.992-11.777-32.086-22.699-64.511-36.863-95.574-57.004-126.805-193.539-212.309-332.289-210.09-104.106-0.855-210.09 44.883-275.457 126.977-29.184 34.472-54.614 77.652-104.278 83.453 59.223-135.168 188.586-233.13 335.532-250.879z m0 0" p-id="1969"></path><path d="M360.351 316.664c16.043 0.168 48.297 0.168 64.339 0.34 29.356 55.125 59.223 109.91 89.43 164.696 29.356-54.614 58.539-109.227 87.039-164.184 15.36-0.34 46.422-0.852 61.781-1.195-32.765 59.562-65.707 119.125-99.328 178.347l83.969 1.024c-0.172 9.558-0.512 28.844-0.851 38.402-35.672 0.512-71.34 0.68-107.008 1.195 0.34 11.434 0.851 34.133 1.191 45.567 35.5 0.172 70.828 0.683 106.328 0.851-0.172 9.559-0.172 28.332-0.172 37.719-35.5 0.512-70.828 0.512-106.324 0.852-0.344 29.187-0.512 58.371-1.023 87.554h-55.297c-0.512-29.183-0.684-58.539-1.024-87.722-33.453 0-66.902-0.344-100.351-0.344-0.684-9.387-2.219-28.16-2.902-37.375 34.472-0.512 68.949-1.535 103.421-1.707 0.172-11.434 0.344-34.305 0.512-45.738-33.621-0.172-67.242-0.512-100.863-0.512l-3.414-38.059c27.136-0.851 54.101-1.363 81.238-2.046-34.133-58.884-67.582-118.275-100.691-177.665z m0 0" p-id="1970"></path><path d="M101.96 509.348c66.219 32.938 136.535 57.172 200.703 94.207-55.297 25.258-108.883-10.582-160.086-27.988 11.949 32.426 22.871 65.191 37.379 96.594C234.569 792.825 361.374 875.938 493.3 880.887c110.25 6.145 224.765-39.594 294.058-126.976 29.184-34.305 54.442-77.653 104.106-83.114-59.223 135.168-188.758 233.129-335.703 250.879h-99.324C274.675 893.688 123.292 742.137 101.96 558.157v-48.809z m0 0" p-id="1971"></path></svg>