<?xml version="1.0" standalone="no"?><!DOCTYPE svg PUBLIC "-//W3C//DTD SVG 1.1//EN" "http://www.w3.org/Graphics/SVG/1.1/DTD/svg11.dtd"><svg t="1502441687868" class="icon" style="" viewBox="0 0 1024 1024" version="1.1" xmlns="http://www.w3.org/2000/svg" p-id="3893" xmlns:xlink="http://www.w3.org/1999/xlink" width="200" height="200"><defs><style type="text/css"></style></defs><path d="M0 0h459.52C257.92 20.8 84.16 165.44 21.44 357.12 104.64 352 134.4 269.12 182.72 215.68c139.52-172.16 417.28-198.4 591.36-64 95.68 63.68 143.36 172.16 184.32 275.2-33.6-4.48-101.12-13.12-134.72-17.6-2.56 16-7.36 48-9.6 64 70.08 11.52 140.16 22.4 209.92 37.12V1024H574.08c189.12-26.24 354.24-156.48 419.52-336.32-16 0.32-48.64 0.96-64.96 0.96-86.72 164.16-259.84 288.32-451.52 268.16-194.88-8.64-347.2-163.52-408-340.48 44.16 5.12 88.32 9.92 132.48 15.36l7.68-64c-69.76-13.76-139.52-26.88-209.28-40.64V0m327.04 274.24c39.68 79.04 84.48 155.2 128.32 231.68h-117.12c-1.6 16-5.12 47.68-6.72 63.68l128 2.88c2.24 15.04 6.4 45.12 8.32 60.16-43.84 0.32-88 0.96-132.16 2.24 0 16.32 0 48.96 0.32 65.6h125.76c1.28 16.32 3.52 49.28 4.8 65.6l62.72-2.56c0.64-15.04 1.6-45.44 1.92-60.48 54.4-16 186.56 34.88 165.76-68.48-56.96-0.96-113.92-1.6-170.56-2.56 1.6-15.04 4.48-44.8 6.08-59.52h159.36c0-16.64 0.64-49.92 0.64-66.24-33.92-0.32-102.08-0.32-136-0.64 44.16-76.48 88.96-152.96 128.96-231.68-105.92 3.84-125.76 130.24-184.64 198.4-50.56-69.44-64.64-198.4-173.76-198.08z" fill="#FFFFFF" p-id="3894"></path><path d="M564.16 0H1024v460.16C1000.64 222.72 801.6 23.36 564.16 0zM0 575.04C29.12 801.92 214.72 987.2 439.04 1024H0V575.04z" fill="#FFFFFF" p-id="3895"></path><path d="M459.52 0h104.64C801.6 23.36 1000.64 222.72 1024 460.16v50.24c-69.76-14.72-139.84-25.6-209.92-37.12 2.24-16 7.04-48 9.6-64 33.6 4.48 101.12 13.12 134.72 17.6-40.96-103.04-88.64-211.52-184.32-275.2-174.08-134.4-451.84-108.16-591.36 64C134.4 269.12 104.64 352 21.44 357.12 84.16 165.44 257.92 20.8 459.52 0z" fill="#3F424C" p-id="3896"></path><path d="M327.04 274.24c109.12-0.32 123.2 128.64 173.76 198.08 58.88-68.16 78.72-194.56 184.64-198.4-40 78.72-84.8 155.2-128.96 231.68 33.92 0.32 102.08 0.32 136 0.64 0 16.32-0.64 49.6-0.64 66.24h-159.36c-1.6 14.72-4.48 44.48-6.08 59.52 56.64 0.96 113.6 1.6 170.56 2.56 20.8 103.36-111.36 52.48-165.76 68.48-0.32 15.04-1.28 45.44-1.92 60.48l-62.72 2.56c-1.28-16.32-3.52-49.28-4.8-65.6H336c-0.32-16.64-0.32-49.28-0.32-65.6 44.16-1.28 88.32-1.92 132.16-2.24-1.92-15.04-6.08-45.12-8.32-60.16l-128-2.88c1.6-16 5.12-47.68 6.72-63.68h117.12c-43.84-76.48-88.64-152.64-128.32-231.68z" fill="#3F424C" p-id="3897"></path><path d="M0 527.04c69.76 13.76 139.52 26.88 209.28 40.64l-7.68 64c-44.16-5.44-88.32-10.24-132.48-15.36 60.8 176.96 213.12 331.84 408 340.48 191.68 20.16 364.8-104 451.52-268.16 16.32 0 48.96-0.64 64.96-0.96-65.28 179.84-230.4 310.08-419.52 336.32h-135.04C214.72 987.2 29.12 801.92 0 575.04v-48z" fill="#3F424C" p-id="3898"></path></svg>