<?xml version="1.0" standalone="no"?><!DOCTYPE svg PUBLIC "-//W3C//DTD SVG 1.1//EN" "http://www.w3.org/Graphics/SVG/1.1/DTD/svg11.dtd"><svg t="1496282327882" class="icon" style="" viewBox="0 0 1024 1024" version="1.1" xmlns="http://www.w3.org/2000/svg" p-id="2704" xmlns:xlink="http://www.w3.org/1999/xlink" width="200" height="200"><defs><style type="text/css"></style></defs><path d="M925.205415 709.137893 134.981762 709.137893c-35.69292 0-64.73128-29.03836-64.73128-64.73128L70.250482 142.573159c0-35.69292 29.03836-64.73128 64.73128-64.73128l790.224676 0c35.693944 0 64.732303 29.03836 64.732303 64.73128L989.938742 644.406612C989.937718 680.099533 960.899358 709.137893 925.205415 709.137893zM134.981762 98.308003c-24.407899 0-44.265156 19.857257-44.265156 44.265156L90.716606 644.406612c0 24.407899 19.857257 44.265156 44.265156 44.265156l790.224676 0c24.408923 0 44.26618-19.857257 44.26618-44.265156L969.472618 142.573159c0-24.407899-19.857257-44.265156-44.26618-44.265156L134.981762 98.308003z" p-id="2705"></path><path d="M403.174967 249.480005" p-id="2706"></path><path d="M335.700203 520.883321 225.183134 391.31229 339.158978 266.846534 369.346511 294.490128 279.803125 392.274198 366.843504 494.320339Z" p-id="2707"></path><path d="M726.284923 528.235776 696.09739 500.592183 785.640776 402.807089 698.600397 300.761971 729.743698 274.198989 840.260767 403.77002Z" p-id="2708"></path><path d="M703.915449 980.036719c0 15.047718-13.078877 27.249621-29.231765 27.249621L431.130669 1007.28634c-16.125259 0-29.218462-12.201903-29.218462-27.249621l0-9.113565c0-15.046694 13.093203-27.249621 29.218462-27.249621l243.553015 0c16.152888 0 29.231765 12.202926 29.231765 27.249621L703.915449 980.036719z" p-id="2709"></path><path d="M651.322627 293.90582c7.824199 7.818059 4.9088 23.404036-6.505158 34.82618L472.607316 500.942153c-11.416004 11.407817-27.01119 14.323217-34.833343 6.505158l-4.736884-4.744048c-7.824199-7.817036-4.909823-23.411199 6.505158-34.819017l172.20913-172.20913c11.429307-11.43033 27.01119-14.33652 34.833343-6.513344L651.322627 293.90582z" p-id="2710"></path></svg>