<?xml version="1.0" standalone="no"?><!DOCTYPE svg PUBLIC "-//W3C//DTD SVG 1.1//EN" "http://www.w3.org/Graphics/SVG/1.1/DTD/svg11.dtd"><svg t="1496282322093" class="icon" style="" viewBox="0 0 1024 1024" version="1.1" xmlns="http://www.w3.org/2000/svg" p-id="2476" xmlns:xlink="http://www.w3.org/1999/xlink" width="200" height="200"><defs><style type="text/css"></style></defs><path d="M510.019391 962.052113c-60.685127 0-119.571283-11.891841-175.009919-35.343973-53.54245-22.64065-101.626585-55.061037-142.908804-96.348372-41.287335-41.278125-73.702606-89.36533-96.347348-142.904711C72.301188 632.013351 60.412416 573.126172 60.412416 512.443092c0-60.690244 11.888771-119.577423 35.340903-175.016059 22.64372-53.54245 55.060013-101.626585 96.347348-142.907781 41.283242-41.287335 89.366354-73.699536 142.908804-96.347348 55.43966-23.451108 114.325815-35.340903 175.009919-35.340903 60.691267 0 119.577423 11.888771 175.016059 35.340903 53.541427 22.647813 101.626585 55.060013 142.906757 96.347348 41.289382 41.282219 73.700559 89.366354 96.349395 142.907781 23.448038 55.43966 35.33988 114.326838 35.33988 175.016059 0 60.687174-11.891841 119.571283-35.33988 175.010943-22.648836 53.53938-55.061037 101.627608-96.349395 142.904711-41.281195 41.288358-89.36533 73.707722-142.906757 96.348372C629.591697 950.160271 570.710658 962.052113 510.019391 962.052113L510.019391 962.052113zM510.019391 102.232382c-226.184439 0-410.204569 184.021154-410.204569 410.210709 0 226.190579 184.02013 410.209686 410.204569 410.209686 226.190579 0 410.209686-184.019107 410.209686-410.209686C920.229077 286.252513 736.20997 102.232382 510.019391 102.232382L510.019391 102.232382zM510.019391 102.232382" p-id="2477"></path><path d="M642.881374 375.470487c0-76.207659-55.144948-128.742153-133.478014-128.742153-78.639035 0-132.240837 60.96142-132.240837 135.905296l0 63.380516-16.60519 0c-36.637432 0-66.427922 29.788443-66.427922 66.422805l0 199.286836c0 36.639478 29.79049 66.428945 66.427922 66.428945L659.483494 778.152732c36.636409 0 66.430992-29.789467 66.430992-66.428945L725.914486 512.436952c0-36.634362-29.794583-66.422805-66.430992-66.422805l-16.60212 0-33.218566 0L410.379043 446.014146l0-63.380516c0-56.616462 38.697347-102.688777 99.025341-102.688777 59.71401 0 100.259448 37.938054 100.259448 95.525634 0 0-0.107447 14.233166 16.539698 14.325263C640.927883 389.530714 642.881374 375.470487 642.881374 375.470487L642.881374 375.470487zM692.696943 711.723787c0 18.312064-14.899338 33.215496-33.213449 33.215496L360.559381 744.939283c-18.310018 0-33.215496-14.903431-33.215496-33.215496L327.343885 512.436952c0-18.306948 14.905478-33.211403 33.215496-33.211403L659.483494 479.225549c18.314111 0 33.213449 14.904455 33.213449 33.211403L692.696943 711.723787 692.696943 711.723787zM692.696943 711.723787" p-id="2478"></path><path d="M510.019391 545.654494c-18.342764 0-33.212426 14.869662-33.212426 33.213449 0 12.291954 6.685259 23.020296 16.607236 28.760021l0 54.277184c0 9.169847 7.43125 16.60519 16.60519 16.60519 9.174963 0 16.607236-7.43125 16.607236-16.60519l0-54.277184c9.927093-5.739724 16.610306-16.46909 16.610306-28.760021C543.237957 560.524157 528.365224 545.654494 510.019391 545.654494L510.019391 545.654494zM510.019391 545.654494" p-id="2479"></path></svg>