<?xml version="1.0" standalone="no"?><!DOCTYPE svg PUBLIC "-//W3C//DTD SVG 1.1//EN" "http://www.w3.org/Graphics/SVG/1.1/DTD/svg11.dtd"><svg t="1502868286362" class="icon" style="" viewBox="0 0 1024 1024" version="1.1" xmlns="http://www.w3.org/2000/svg" p-id="2294" xmlns:xlink="http://www.w3.org/1999/xlink" width="200" height="200"><defs><style type="text/css"></style></defs><path d="M838.046 236H668v-78.791C668 124.892 654.357 94 622.04 94H387.989C355.671 94 311 124.892 311 157.209V236H159.952C120.531 236 98 269.082 98 308.505v130.19c95.035 40.174 219 66.536 357 71.919V558h106v-47.461c138-5.696 263-32.476 357-73.062V308.505C918 269.082 877.466 236 838.046 236zM384 166h214v70H384v-70z" p-id="2295"></path><path d="M598 579.841V631H418v-50.982C309 572.784 210.384 553 128.796 523H98v357h820V523h-33.927C803.226 553 705 572.435 598 579.841z" p-id="2296"></path></svg>